<?xml version="1.0" encoding="utf-8"?>
<!-- Generator: Adobe Illustrator 24.3.0, SVG Export Plug-In . SVG Version: 6.00 Build 0)  -->
<svg version="1.1" id="Layer_1" xmlns="http://www.w3.org/2000/svg" xmlns:xlink="http://www.w3.org/1999/xlink" x="0px" y="0px"
	 viewBox="0 0 250 250" style="enable-background:new 0 0 250 250;" xml:space="preserve">
<style type="text/css">
	.st0{fill-rule:evenodd;clip-rule:evenodd;fill:#B5DAF9;}
	.st1{fill-rule:evenodd;clip-rule:evenodd;fill:#08355E;}
	.st2{filter:url(#Adobe_OpacityMaskFilter);}
	.st3{fill-rule:evenodd;clip-rule:evenodd;fill:#FFFFFF;}
	.st4{mask:url(#mask-2_1_);fill-rule:evenodd;clip-rule:evenodd;fill:#08355E;}
	.st5{fill-rule:evenodd;clip-rule:evenodd;fill:#1686E9;}
</style>
<desc>Created with Sketch.</desc>
<g id="Library-Symbols">
	<g id="Images_x2F_Hazards_x2F_Changed-seasonal-patterns">
		<circle id="Oval-2" class="st0" cx="125" cy="125" r="125"/>
		<g id="Page-1" transform="translate(52.000000, 46.000000)">
			<path id="Fill-1" class="st1" d="M101,79c0-5.7-1.4-11.1-4.3-16c-2.9-4.9-6.8-8.8-11.7-11.7C80.1,48.4,74.7,47,69,47v64
				c5.7,0,11.1-1.4,16-4.3c4.9-2.9,8.8-6.8,11.7-11.7C99.6,90.1,101,84.7,101,79z"/>
			<g id="Group-5" transform="translate(69.000000, 0.000000)">
				<g id="Clip-4">
				</g>
				<defs>
					<filter id="Adobe_OpacityMaskFilter" filterUnits="userSpaceOnUse" x="0.2" y="0" width="75.1" height="158">
						<feColorMatrix  type="matrix" values="1 0 0 0 0  0 1 0 0 0  0 0 1 0 0  0 0 0 1 0"/>
					</filter>
				</defs>
				<mask maskUnits="userSpaceOnUse" x="0.2" y="0" width="75.1" height="158" id="mask-2_1_">
					<g class="st2">
						<polygon id="path-1_1_" class="st3" points="0.2,0 75.3,0 75.3,158 0.2,158 						"/>
					</g>
				</mask>
				<path id="Fill-3" class="st4" d="M72.9,96.6L57.3,83.3c-1.4-1.2-2.1-2.7-2.1-4.3c0-1.6,0.7-3.1,2.1-4.3l15.6-13.3
					c2.2-1.9,2.9-4.1,2-6.8c-0.9-2.7-2.7-4.1-5.4-4.3l-20.8-1.5c-1.6-0.2-3-1-4-2.3c-1-1.3-1.3-2.8-0.9-4.5l4.9-20.4
					c0.8-2.7,0.1-4.8-2.3-6.5c-2.4-1.6-4.7-1.7-6.9-0.3L21.7,25.9c-1.4,0.8-2.9,1-4.4,0.5s-2.7-1.6-3.5-3.2L6.1,4c-1-2.7-3-4-5.8-4
					v37c7.6,0,14.5,1.9,20.8,5.7c6.3,3.8,11.4,8.9,15.2,15.3s5.7,13.4,5.7,21c0,7.6-1.9,14.6-5.7,21c-3.8,6.4-8.8,11.5-15.2,15.3
					S7.8,121,0.2,121v37c2.9,0,4.8-1.3,5.8-4l7.7-19.1c0.8-1.6,2-2.7,3.5-3.2c1.5-0.5,3-0.4,4.4,0.5l17.8,11.1
					c2.2,1.4,4.5,1.3,6.9-0.3c2.4-1.6,3.1-3.8,2.3-6.5L43.8,116c-0.4-1.6-0.1-3.1,0.9-4.5c1-1.3,2.4-2.1,4-2.3l20.8-1.5
					c2.7-0.2,4.4-1.6,5.4-4.3C75.8,100.7,75.2,98.4,72.9,96.6"/>
			</g>
			<path id="Fill-6" class="st5" d="M69,0c-2.1,0-3.8,0.7-5.2,2.2c-1.4,1.4-2.2,3.2-2.2,5.2v19.1l-9.2-11.7
				c-1.2-1.4-2.9-2.2-4.9-2.3c-2.1-0.1-3.8,0.5-5.2,1.9c-1.4,1.3-2.3,3-2.5,5.1c-0.2,2.1,0.4,3.8,1.8,5.2l20,19.8V66L43.2,55.2
				l-6.8-27.5c-0.6-1.9-1.8-3.2-3.7-4.2c-1.8-0.9-3.7-1.1-5.7-0.5c-1.9,0.6-3.4,1.9-4.3,3.7c-0.9,1.9-1.1,3.7-0.5,5.6l5.5,13.9
				l-16.3-9.6c-1.8-1-3.7-1.3-5.7-0.8c-1.9,0.5-3.4,1.7-4.3,3.5c-0.9,1.9-1.1,3.8-0.6,5.7c0.5,2,1.6,3.4,3.2,4.5l16.3,9.6L5.9,61.4
				c-2.1,0.4-3.6,1.5-4.8,3.2c-1.1,1.7-1.4,3.6-0.9,5.6c0.5,2,1.6,3.5,3.2,4.6C5.1,76,7,76.3,9,75.9l26.8-7.7L56.7,79L35.8,89.8
				L9,82.1C7,81.7,5.1,82,3.5,83.2c-1.6,1.1-2.7,2.7-3.2,4.6c-0.5,2-0.2,3.8,0.9,5.6c1.1,1.7,2.7,2.8,4.8,3.2l14.5,2.2l-16.3,9.6
				c-1.6,1-2.7,2.5-3.2,4.5c-0.5,2-0.3,3.9,0.6,5.7c0.9,1.9,2.4,3,4.3,3.5c1.9,0.5,3.8,0.3,5.7-0.8l16.3-9.6l-5.5,13.9
				c-0.6,2.1-0.4,4,0.6,5.7c1,1.7,2.5,2.9,4.3,3.5c1.8,0.6,3.7,0.5,5.5-0.5c1.8-0.9,3.1-2.3,3.7-4.2l6.8-27.5L61.6,92v21.6l-20,19.8
				c-1.4,1.4-2.1,3.2-1.8,5.2c0.2,2.1,1,3.8,2.5,5.1c1.4,1.3,3.2,2,5.2,1.9c2.1-0.1,3.7-0.9,4.9-2.3l9.2-11.7v19.1
				c0,2.1,0.7,3.8,2.2,5.2c1.4,1.4,3.2,2.2,5.2,2.2V0z"/>
		</g>
	</g>
</g>
</svg>
