<?xml version="1.0" encoding="UTF-8"?>
<svg width="250px" height="250px" viewBox="0 0 250 250" version="1.1" xmlns="http://www.w3.org/2000/svg" xmlns:xlink="http://www.w3.org/1999/xlink">
    <!-- Generator: Sketch 48.2 (47327) - http://www.bohemiancoding.com/sketch -->
    <title>Images/Hazards/Coastal flood</title>
    <desc>Created with Sketch.</desc>
    <defs></defs>
    <g id="Library-Symbols" stroke="none" stroke-width="1" fill="none" fill-rule="evenodd">
        <g id="Images/Hazards/Coastal-flood">
            <circle id="Oval-2" fill="#BFEFE9" cx="125" cy="125" r="125"></circle>
            <g id="coastal-flood" transform="translate(50.000000, 59.000000)" fill-rule="nonzero">
                <path d="M149.797838,79.3286132 L149.797838,32.1615584 C149.797838,29.5507195 147.668173,27.4342164 145.041097,27.4342164 L143.851912,27.4342164 L143.851912,16.5849665 C143.849287,16.3584109 143.764886,16.140325 143.614075,15.970412 L133.327622,7.57937995 L130.8779,5.58207795 C130.725689,5.46003042 130.538157,5.3896227 130.342767,5.38116592 C130.143596,5.38877046 129.952021,5.4591325 129.795742,5.58207795 L127.34602,7.57937995 L117.071459,15.970412 C116.915721,16.1373148 116.83056,16.3573643 116.833622,16.5849665 L116.833622,27.4342164 L114.395792,27.4342164 C112.413929,27.4376637 110.641889,28.6619494 109.948239,30.5069887 L109.650942,30.9560862 C85.6693493,72.2212575 50.4168487,105.891372 7.97559822,128.067509 C7.0209046,128.579488 6.53578005,129.668608 6.79625044,130.715184 C7.05672084,131.76176 7.99677464,132.500556 9.08154056,132.511211 L145.243259,132.511211 C147.870334,132.511211 150,130.394708 150,127.783869 L150,79.7777107 L149.797838,79.3286132 Z" id="Shape" fill="#46B6AE"></path>
                <path d="M96.4265696,43.9602547 C96.9396722,43.2357715 97.0030881,42.2879019 96.5910046,41.5024654 C96.1789211,40.717029 95.360049,40.2249892 94.4677009,40.2266255 C89.2802999,40.3466064 84.2634248,38.3851475 80.5525668,34.7861943 L76.3481657,30.7206869 C75.7226433,30.1185154 74.7281558,30.1185154 74.1026334,30.7206869 L69.8982323,34.7861943 C62.399219,42.0526323 50.4269684,42.0526323 42.9279551,34.7861943 L38.7235541,30.7206869 C38.0980317,30.1185154 37.1035441,30.1185154 36.4780217,30.7206869 L32.249732,34.7861943 C24.7507187,42.0526323 12.7784682,42.0526323 5.27945485,34.7861943 L2.7114258,32.2259914 C2.23986579,31.7901943 1.55212163,31.6748373 0.962420981,31.9326266 C0.37272033,32.1904159 -0.0056975949,32.7718487 6.48987806e-05,33.4112705 L6.48987806e-05,123.421367 C0.00257053463,124.242986 0.433625079,125.00473 1.13927164,125.434532 C1.8449182,125.864334 2.72452096,125.900898 3.46391803,125.531164 C40.900749,106.574503 72.8843471,78.5102087 96.4265696,43.9602547 Z" id="Shape" fill="#15514B"></path>
                <path d="M127.499837,7.06472801 L129.962261,5.07816885 C130.116632,4.95119806 130.310887,4.88060167 130.512123,4.87833746 C130.709609,4.88136806 130.899836,4.95203702 131.050031,5.07816885 L133.512455,7.06472801 L143.816386,15.3636083 L146.972114,17.9143973 C147.147988,18.0441099 147.361901,18.1142287 147.581743,18.1142287 C147.796008,18.1193865 147.998397,18.0176628 148.119651,17.8438685 L149.817051,15.7750259 C149.952395,15.6050024 150.016539,15.3905387 149.996353,15.1755317 C149.979378,14.9743232 149.895341,14.7842508 149.757283,14.6348114 L132.615942,0.728897323 C132.01909,0.258231991 131.277179,0.00122189235 130.512123,0.00010047159 C129.763948,-0.00585124727 129.038514,0.252799133 128.468072,0.728897323 L111.231103,14.6818306 C111.08808,14.8280646 111.003238,15.0199578 110.992032,15.2225508 C110.967226,15.4361185 111.027172,15.6508631 111.159382,15.822045 L112.856781,17.8908877 C112.978035,18.064682 113.180424,18.1664056 113.394689,18.1612478 C113.614532,18.1612478 113.828444,18.0911291 114.004318,17.9614164 L117.172,15.4106274 C117.172,15.4106274 117.172,15.4106274 117.172,15.4106274 L127.499837,7.06472801 Z" id="Shape" fill="#46B6AE"></path>
            </g>
        </g>
    </g>
</svg>