<?xml version="1.0" encoding="utf-8"?>
<!-- Generator: Adobe Illustrator 24.3.0, SVG Export Plug-In . SVG Version: 6.00 Build 0)  -->
<svg version="1.1" id="Layer_1" xmlns="http://www.w3.org/2000/svg" xmlns:xlink="http://www.w3.org/1999/xlink" x="0px" y="0px"
	 viewBox="0 0 250 250" style="enable-background:new 0 0 250 250;" xml:space="preserve">
<style type="text/css">
	.st0{fill-rule:evenodd;clip-rule:evenodd;fill:#B5DAF8;}
	.st1{fill:#07365D;}
	.st2{fill:#0E86E9;}
</style>
<desc>Created with Sketch.</desc>
<g id="Library-Symbols">
	<g id="Images_x2F_Hazards_x2F_Coastal-flood">
		<circle id="Oval-2" class="st0" cx="125" cy="125" r="125"/>
		<g id="coastal-flood" transform="translate(50.000000, 59.000000)">
			<path id="Shape_1_" class="st1" d="M96.4,44c0.5-0.7,0.6-1.7,0.2-2.5c-0.4-0.8-1.2-1.3-2.1-1.3c-5.2,0.1-10.2-1.8-13.9-5.4
				l-4.2-4.1c-0.6-0.6-1.6-0.6-2.2,0l-4.2,4.1c-7.5,7.3-19.5,7.3-27,0l-4.2-4.1c-0.6-0.6-1.6-0.6-2.2,0l-4.2,4.1
				c-7.5,7.3-19.5,7.3-27,0l-2.6-2.6c-0.5-0.4-1.2-0.6-1.7-0.3c-0.6,0.3-1,0.8-1,1.5v90c0,0.8,0.4,1.6,1.1,2s1.6,0.5,2.3,0.1
				C40.9,106.6,72.9,78.5,96.4,44z"/>
			<path class="st2" d="M149.8,79.3V32.2c0-2.6-2.1-4.7-4.8-4.7h-1.2v-12l3.1,2.5c0.2,0.1,0.4,0.2,0.6,0.2c0.2,0,0.4-0.1,0.5-0.3
				l1.7-2.1c0.1-0.2,0.2-0.4,0.2-0.6c0-0.2-0.1-0.4-0.2-0.5L132.6,0.7C132,0.3,131.3,0,130.5,0c-0.7,0-1.5,0.3-2,0.7l-17.2,14
				c-0.1,0.1-0.2,0.3-0.2,0.5c0,0.2,0,0.4,0.2,0.6l1.7,2.1c0.1,0.2,0.3,0.3,0.5,0.3c0.2,0,0.4-0.1,0.6-0.2l2.8-2.3v11.8h-2.4
				c-2,0-3.8,1.2-4.4,3.1l-0.3,0.4C85.7,72.2,50.4,105.9,8,128.1c-1,0.5-1.4,1.6-1.2,2.6c0.3,1,1.2,1.8,2.3,1.8h136.2
				c2.6,0,4.8-2.1,4.8-4.7v-48L149.8,79.3z"/>
		</g>
	</g>
</g>
</svg>
