<?xml version="1.0" encoding="UTF-8"?>
<svg width="250px" height="250px" viewBox="0 0 250 250" version="1.1" xmlns="http://www.w3.org/2000/svg" xmlns:xlink="http://www.w3.org/1999/xlink">
    <!-- Generator: Sketch 48.2 (47327) - http://www.bohemiancoding.com/sketch -->
    <title>Images/Hazards/Drought</title>
    <desc>Created with Sketch.</desc>
    <defs></defs>
    <g id="Library-Symbols" stroke="none" stroke-width="1" fill="none" fill-rule="evenodd">
        <g id="Images/Hazards/Drought">
            <circle id="Oval-2" fill="#BFEFE9" cx="125" cy="125" r="125"></circle>
            <g id="drought" transform="translate(50.000000, 50.000000)">
                <path d="M119.083022,11.4934138 C119.419763,12.2511562 120.062286,12.833086 120.853098,13.0965618 C121.59111,13.356923 122.407905,13.2740786 123.077654,12.8709336 L131.987837,7.37272954 C133.052419,6.66147169 134.460013,6.72412331 135.45623,7.52710676 C136.585498,8.16625808 137.089746,9.51807525 136.652228,10.7334029 L134.188473,20.8035476 C133.976262,21.5752043 134.149738,22.4011021 134.654912,23.0242046 C135.125958,23.6779985 135.849377,24.1081124 136.652228,24.2117216 L147.105248,24.9717326 C148.374021,25.0298557 149.460621,25.8929719 149.796242,27.1092633 C150.281417,28.3255062 149.866499,29.7134697 148.791604,30.4699366 L140.957819,37.0250308 C140.29164,37.5390221 139.895843,38.3250023 139.881422,39.1625616 C139.89058,40.0013931 140.287457,40.7895185 140.957819,41.3000923 L148.791604,47.8670617 C149.870245,48.6208614 150.286021,50.0116986 149.796242,51.227735 C149.462933,52.4437 148.37348,53.3042746 147.105248,53.3533906 L136.652228,54.1252767 C135.845906,54.2188618 135.118697,54.6512287 134.654912,55.3127938 C134.149965,55.9313697 133.976309,56.7537039 134.188473,57.5215755 L136.652228,67.6035955 C137.093486,68.8155265 136.58765,70.1665785 135.45623,70.7980164 C134.462973,71.6086937 133.050164,71.6715774 131.987837,70.9523936 L123.077654,65.4660647 C122.40977,65.0589624 121.592882,64.9717479 120.853098,65.2285613 C120.066796,65.499605 119.426939,66.0791191 119.083022,66.8317094 L115.243869,76.3318459 C114.778121,77.5328115 113.61577,78.3251232 112.319655,78.3251232 C111.02354,78.3251232 109.861189,77.5328115 109.395441,76.3318459 L105.556288,66.8317094 C105.212371,66.0791191 104.572514,65.499605 103.786212,65.2285613 C103.046428,64.9717479 102.22954,65.0589624 101.561656,65.4660647 L92.6155932,70.8573922 C91.553266,71.576576 90.1404574,71.5136923 89.1472,70.703015 C88.0157803,70.0715772 87.5099437,68.7205252 87.9512023,67.5085941 L90.4149575,57.4265742 C90.6271214,56.6587025 90.4534652,55.8363683 89.9485184,55.2177924 C89.4847333,54.5562273 88.757524,54.1238604 87.9512023,54.0302753 L77.4981826,53.2583892 C76.2299504,53.2092732 75.1404974,52.3486986 74.8071878,51.1327337 C74.3547057,49.9166532 74.7935045,48.5508467 75.8716257,47.819561 L83.7054105,41.2525916 C84.375773,40.7420178 84.7726499,39.9538924 84.7818084,39.1150609 C84.7673866,38.2775016 84.3715899,37.4915214 83.7054105,36.9775302 L75.8716257,30.4224359 C74.7967306,29.665969 74.3818134,28.2780055 74.8669877,27.0617626 C75.1965135,25.8280248 76.2974326,24.9516084 77.5819024,24.9004815 L88.0349221,24.1404706 C88.8377726,24.0368613 89.5611924,23.6067475 90.0322382,22.9529535 C90.5374122,22.329851 90.7108883,21.5039533 90.4986773,20.7322966 L88.0349221,10.6621518 C87.5974038,9.44682423 88.1016523,8.09500705 89.2309198,7.45585574 C90.2259939,6.71472686 91.5848332,6.68135432 92.6155932,7.37272954 L101.525776,12.8709336 C102.195526,13.2740786 103.012321,13.356923 103.750332,13.0965618 C104.541144,12.833086 105.183667,12.2511562 105.520408,11.4934138 L109.359561,1.9932772 C109.825309,0.792311627 110.98766,0 112.283775,0 C113.57989,0 114.742241,0.792311627 115.207989,1.9932772 L119.083022,11.4934138 Z M130.37324,28.7361617 C128.518133,25.6232466 125.901841,23.0255057 122.766695,21.1835531 C116.314857,17.4304722 108.324453,17.4304722 101.872615,21.1835531 C98.7374695,23.0255057 96.1211769,25.6232466 94.26607,28.7361617 C90.4713287,35.1424916 90.4713287,43.0876302 94.26607,49.4939601 C96.1145339,52.6119866 98.7323215,55.2112119 101.872615,57.0465687 C108.320299,60.8148188 116.319011,60.8148188 122.766695,57.0465687 C125.906989,55.2112119 128.524776,52.6119866 130.37324,49.4939601 C134.167981,43.0876302 134.167981,35.1424916 130.37324,28.7361617 Z" id="Shape" fill="#4AA49B" fill-rule="nonzero"></path>
                <path d="M126.103528,47.0595501 C124.699658,49.4630652 122.687739,51.460718 120.26706,52.8546334 C115.323584,55.7055841 109.220046,55.7055841 104.276571,52.8546334 C101.855891,51.460718 99.8439719,49.4630652 98.4401019,47.0595501 C95.5687913,42.1511277 95.5687913,36.0908693 98.4401019,31.1824468 C99.8408536,28.7765529 101.853495,26.7781827 104.276571,25.3873635 C109.220046,22.5364129 115.323584,22.5364129 120.26706,25.3873635 C122.690135,26.7781827 124.702777,28.7765529 126.103528,31.1824468 C128.974839,36.0908693 128.974839,42.1511277 126.103528,47.0595501 Z" id="Path" fill="#4AA49B"></path>
                <polygon id="Shape" fill="#15514B" fill-rule="nonzero" points="80.5851761 120.44335 84.2364532 87.1921182 72.212215 87.1921182 55.4187192 102.001087"></polygon>
                <polygon id="Shape" fill="#15514B" fill-rule="nonzero" points="20.2349375 132.26601 12.5615764 150 25.862069 150"></polygon>
                <polygon id="Shape" fill="#15514B" fill-rule="nonzero" points="51.3948082 99.0147783 64.2857143 87.1921182 39.1625616 87.1921182"></polygon>
                <polygon id="Shape" fill="#15514B" fill-rule="nonzero" points="52.826537 104.926108 24.3842365 125.500011 32.1401411 149.261084 73.5248835 149.261084 81.2807882 125.500011"></polygon>
                <path d="M18.8430737,124.455929 L18.9782816,124.360925 L0.614581659,90.1477833 C0.218752442,90.8388353 0.00752042999,91.6143383 0,92.4041168 L0,145.249824 C2.72929083e-16,147.873274 2.20126065,150 4.91665327,150 L8.0018532,150 L19.2118227,125.536594 L18.8430737,124.455929 Z" id="Shape" fill="#15514B" fill-rule="nonzero"></path>
                <polygon id="Shape" fill="#15514B" fill-rule="nonzero" points="22.1507168 121.182266 48.7684729 101.968888 32.6564648 87.1921182 4.43349754 87.1921182"></polygon>
                <path d="M150,108.62069 L150,91.9303319 C150,89.3134888 147.88181,87.1921182 145.26889,87.1921182 L95.320197,87.1921182 L150,108.62069 Z" id="Shape" fill="#15514B" fill-rule="nonzero"></path>
                <polygon id="Shape" fill="#15514B" fill-rule="nonzero" points="84.0301003 132.26601 78.3251232 150 92.364532 150"></polygon>
                <path d="M111.576355,150 L145.249008,150 C147.872909,150 150,147.845671 150,145.188173 L150,120.44335 L111.576355,150 Z" id="Shape" fill="#15514B" fill-rule="nonzero"></path>
                <polygon id="Shape" fill="#15514B" fill-rule="nonzero" points="150 113.797815 88.692087 90.1477833 84.9753695 123.279027 85.8836348 123.926812 85.4892564 125.128158 97.1174435 149.261084 103.439449 149.261084 150 114.410266"></polygon>
            </g>
        </g>
    </g>
</svg>