<?xml version="1.0" encoding="UTF-8"?>
<svg width="250px" height="250px" viewBox="0 0 250 250" version="1.1" xmlns="http://www.w3.org/2000/svg" xmlns:xlink="http://www.w3.org/1999/xlink">
    <!-- Generator: Sketch 48.2 (47327) - http://www.bohemiancoding.com/sketch -->
    <title>Images/Hazards/Extreme hot days</title>
    <desc>Created with Sketch.</desc>
    <defs></defs>
    <g id="Library-Symbols" stroke="none" stroke-width="1" fill="none" fill-rule="evenodd">
        <g id="Images/Hazards/Extreme-hot-days">
            <circle id="Oval-2" fill="#BFEFE9" cx="125" cy="125" r="125"></circle>
            <g id="extreme-hot-days" transform="translate(51.000000, 51.000000)">
                <path d="M118.360781,11.7170313 C118.698858,12.4654955 119.330412,13.0415754 120.106719,13.3096094 C120.839354,13.5619503 121.645825,13.4800093 122.312734,13.0854688 L131.125,7.61171875 C132.170261,6.89392373 133.563709,6.95158364 134.546094,7.75328125 C135.665682,8.38920656 136.163943,9.73949381 135.725781,10.9502344 L133.283828,20.989375 C133.074511,21.7559439 133.245622,22.5763964 133.743906,23.1953906 C134.211227,23.8476693 134.929606,24.2752759 135.725781,24.3750781 L146.059844,25.1300781 C147.314372,25.1864869 148.390284,26.0434086 148.725938,27.2535156 C149.21532,28.4648229 148.804551,29.853614 147.735,30.6038281 L139.984453,37.1392969 C139.316952,37.647798 138.920942,38.4354656 138.910938,39.2745313 C138.91922,40.1107404 139.315973,40.8955261 139.984453,41.3979688 L147.735,47.9452344 C148.802668,48.6913742 149.213637,50.0759465 148.725938,51.28375 C148.397868,52.5006752 147.319045,53.3646877 146.059844,53.4189844 L135.725781,54.1739844 C134.929606,54.2737866 134.211227,54.7013932 133.743906,55.3536719 C133.245622,55.9726661 133.074511,56.7931186 133.283828,57.5596875 L135.725781,67.5870313 C136.163943,68.7977718 135.665682,70.1480591 134.546094,70.7839844 C133.566382,71.5893167 132.17284,71.6517858 131.125,70.9373438 L122.300938,65.4635938 C121.636132,65.0627025 120.826774,64.9804683 120.094922,65.2394531 C119.3164,65.5037471 118.68354,66.0810185 118.348984,66.8320313 L114.550391,76.2695313 C114.085666,77.4602074 112.938311,78.2440419 111.660156,78.2440419 C110.382002,78.2440419 109.234646,77.4602074 108.769922,76.2695313 L104.971328,66.8320313 C104.63174,66.0803001 103.99508,65.5034602 103.213594,65.2394531 C102.485647,64.9808086 101.679991,65.0631068 101.019375,65.4635938 L92.1953125,70.8665625 C91.1474726,71.5810046 89.7539308,71.5185354 88.7742188,70.7132031 C87.6546308,70.0772778 87.1563698,68.7269906 87.5945313,67.51625 L90.0246875,57.4889063 C90.2453827,56.7245207 90.0779375,55.9005136 89.5764063,55.2828906 C89.1090858,54.6306119 88.3907067,54.2030053 87.5945313,54.1032031 L77.2604688,53.3482031 C76.0012672,53.2939065 74.9224449,52.4298939 74.594375,51.2129688 C74.1396646,49.9935931 74.5903655,48.6218945 75.6796875,47.9098438 L83.4302344,41.3625781 C84.0945037,40.8566205 84.4901402,40.0740428 84.50375,39.2391406 C84.4885266,38.4013546 84.0935958,37.6158328 83.4302344,37.1039063 L75.6796875,30.5684375 C74.6063629,29.8209413 74.1947224,28.4292043 74.68875,27.218125 C75.0244032,26.008018 76.1003159,25.1510963 77.3548438,25.0946875 L87.6889063,24.3396875 C88.4850817,24.2398853 89.2034608,23.8122787 89.6707813,23.16 C90.1723125,22.542377 90.3397577,21.71837 90.1190625,20.9539844 L87.6889063,10.9148438 C87.2507448,9.70410319 87.7490058,8.35381594 88.8685938,7.71789063 C89.8400305,6.9728674 91.1783464,6.93015519 92.1953125,7.61171875 L101.019375,13.0854688 C101.682122,13.4795513 102.484855,13.5615509 103.213594,13.3096094 C103.992895,13.0418935 104.628264,12.466224 104.971328,11.7170313 L108.769922,2.27953125 C109.234646,1.08885513 110.382002,0.305020623 111.660156,0.305020623 C112.938311,0.305020623 114.085666,1.08885513 114.550391,2.27953125 L118.360781,11.7170313 Z M129.544219,28.8932813 C127.698977,25.8070913 125.106605,23.2350045 122.006016,21.4140625 C115.620942,17.6705826 107.711167,17.6705826 101.326094,21.4140625 C98.2259564,23.2521731 95.6377981,25.8403314 93.7996875,28.9404688 C90.0562076,35.3255424 90.0562076,43.2353169 93.7996875,49.6203906 C95.6308857,52.7258894 98.220595,55.3155987 101.326094,57.1467969 C107.707062,60.9053661 115.625047,60.9053661 122.006016,57.1467969 C125.11743,55.3192451 127.711796,52.7289389 129.544219,49.6203906 C133.287699,43.2353169 133.287699,35.3255424 129.544219,28.9404688 L129.544219,28.8932813 Z" id="Shape" fill="#15514B" fill-rule="nonzero"></path>
                <path d="M125.356328,47.1430469 C123.970113,49.5437149 121.976527,51.5373002 119.575859,52.9235156 C114.686869,55.7546297 108.657037,55.7546297 103.768047,52.9235156 C101.364638,51.5408743 99.3702195,49.5464553 97.9875781,47.1430469 C95.1417,42.2580333 95.1417,36.2202479 97.9875781,31.3352344 C99.3670526,28.9294017 101.362214,26.9342401 103.768047,25.5547656 C108.65306,22.7088875 114.690846,22.7088875 119.575859,25.5547656 C121.979268,26.937407 123.973687,28.931826 125.356328,31.3352344 C128.202206,36.2202479 128.202206,42.2580333 125.356328,47.1430469 Z" id="Path" fill="#15514B"></path>
                <path d="M65.1214844,28.0439062 L65.1214844,86.9221094 C75.6520115,98.9737946 77.3988254,116.370925 69.4745312,130.275625 C66.2702338,135.89794 61.6130182,140.555156 55.9907031,143.759453 C50.305248,147.041806 43.8455643,148.744295 37.2808594,148.690547 L36.9859375,148.690547 C30.4992888,148.715159 24.130069,146.960665 18.5710156,143.617891 C12.9612354,140.313895 8.31288646,135.600477 5.0871875,129.945312 C1.81960934,124.272033 0.12547317,117.829429 0.1796875,111.282656 C0.0650048848,102.281825 3.37532114,93.573796 9.44023437,86.9221094 L9.44023437,28.0439062 C9.30514953,20.6337596 12.2430816,13.4981717 17.5564844,8.33132812 C22.7225229,3.00548042 29.8621656,0.0548266365 37.2808594,0.1796875 C44.6990158,0.0576570883 51.8375782,3.00786444 57.0052344,8.33132812 C62.3138676,13.5013983 65.2509104,20.6348266 65.1214844,28.0439062 Z M37.2808594,134.770234 C43.4484787,134.861688 49.3792408,132.398009 53.6667188,127.963437 C58.0973272,123.672323 60.5638209,117.745057 60.4853125,111.577578 C60.5365835,107.705691 59.53341,103.892816 57.5832812,100.5475 C56.1619421,98.0031588 54.404109,95.6620266 52.3572656,93.5873437 L51.1775781,92.148125 L51.1775781,28.0439062 C51.1933425,24.3471996 49.7318053,20.7973468 47.1178151,18.1833567 C44.503825,15.5693666 40.9539723,14.1078293 37.2572656,14.1235937 C33.560559,14.1078293 30.0107062,15.5693666 27.3967161,18.1833567 C24.782726,20.7973468 23.3211887,24.3471996 23.3369531,28.0439062 L23.3369531,92.1953125 L22.1572656,93.6345312 C20.1066706,95.7059779 18.3484348,98.0476463 16.93125,100.594687 C14.9811213,103.940003 13.9779478,107.752878 14.0292187,111.624766 C14.0010778,117.737511 16.4629277,123.598247 20.8478125,127.857266 C24.9977288,132.331654 30.8362605,134.857118 36.93875,134.817422 L37.2808594,134.770234 Z" id="Shape" fill="#4AA49B" fill-rule="nonzero"></path>
                <path d="M51.5432812,103.166406 C50.1235575,100.626837 48.0019527,98.5502859 45.4325,97.1853906 L44.5005469,96.678125 L44.5005469,28.0439063 C44.4309887,23.9247962 41.1051518,20.6041803 36.9859375,20.5410938 C32.8667232,20.6041803 29.5408863,23.9247962 29.4713281,28.0439063 L29.4713281,96.678125 L28.539375,97.1853906 C25.9572777,98.5329309 23.8312379,100.613823 22.4285937,103.166406 C20.9744664,105.730104 20.2179075,108.630247 20.234375,111.577578 C20.1604931,116.045834 21.9004861,120.353306 25.0571156,123.516605 C28.2137451,126.679903 32.5175359,128.428983 36.9859375,128.364531 C41.4604291,128.438665 45.7734648,126.693861 48.9378424,123.529483 C52.1022199,120.365105 53.8470243,116.05207 53.7728906,111.577578 C53.7736473,108.627687 53.0051617,105.728585 51.5432812,103.166406 Z" id="Shape" fill="#15514B" fill-rule="nonzero"></path>
            </g>
        </g>
    </g>
</svg>