<?xml version="1.0" encoding="UTF-8"?>
<svg width="250px" height="250px" viewBox="0 0 250 250" version="1.1" xmlns="http://www.w3.org/2000/svg" xmlns:xlink="http://www.w3.org/1999/xlink">
    <!-- Generator: Sketch 48.2 (47327) - http://www.bohemiancoding.com/sketch -->
    <title>Images/Hazards/Ocean acidification</title>
    <desc>Created with Sketch.</desc>
    <defs></defs>
    <g id="Library-Symbols" stroke="none" stroke-width="1" fill="none" fill-rule="evenodd">
        <g id="Images/Hazards/Ocean-acidification">
            <circle id="Oval-2" fill="#BFEFE9" cx="125" cy="125" r="125"></circle>
            <g id="Group" transform="translate(53.000000, 62.000000)" fill="#15514B" fill-rule="nonzero">
                <path d="M77.5406111,43.7735374 C74.3643491,43.6594862 71.3231612,45.0627833 69.3488115,47.5534842 C67.3190528,50.0811082 66.3003437,53.6733981 66.2926843,58.3303538 C66.2850248,62.9873096 67.3037339,66.5757697 69.3488115,69.0957343 C71.3219634,71.5892493 74.3627238,72.9966139 77.5406111,72.8871703 C80.7107029,73.0061436 83.7451382,71.5957723 85.6979431,69.0957343 C87.7123829,66.5681103 88.715773,62.9796501 88.7081135,58.3303538 C88.7004541,53.6810576 87.6970639,50.0925974 85.6979431,47.5649734 C83.7451382,45.0649354 80.7107029,43.6545641 77.5406111,43.7735374 Z" id="Shape"></path>
                <path d="M142.213318,2.14816564 L139.708673,4.59536524 C132.490451,11.6267425 120.98428,11.6267425 113.766059,4.59536524 L109.72186,0.64308043 C109.120173,0.0593808493 108.163579,0.0593808493 107.561891,0.64308043 L103.517692,4.59536524 C96.2994707,11.6267425 84.7933004,11.6267425 77.5750787,4.59536524 L73.5308803,0.64308043 C72.9291925,0.0593808493 71.9725985,0.0593808493 71.3709107,0.64308043 L67.3267123,4.59536524 C60.1084906,11.6267425 48.6023202,11.6267425 41.3840986,4.59536524 L37.3399001,0.64308043 C36.7382124,0.0593808493 35.7816183,0.0593808493 35.1799305,0.64308043 L31.1357321,4.59536524 C23.9175105,11.6267425 12.4113401,11.6267425 5.19311842,4.59536524 L2.69996201,2.14816564 C2.2481392,1.70952019 1.57594877,1.58759156 0.998848136,1.83960056 C0.421747507,2.09160957 0.0542949852,2.66753076 0.0689352003,3.29708564 L0.0689352003,120.912026 C0.0596922768,122.420121 0.654693835,123.869125 1.72109766,124.935529 C2.78750149,126.001933 4.23650559,126.596934 5.74460002,126.587691 L139.203148,126.587691 C140.698232,126.587694 142.131914,125.992989 143.18802,124.934728 C144.244126,123.876467 144.835907,122.441575 144.832856,120.946494 L144.832856,3.25112884 C144.835185,2.62960507 144.46357,2.06764057 143.890748,1.82645223 C143.317926,1.58526389 142.656263,1.71216392 142.213318,2.14816564 Z M27.5740801,69.2795615 C29.2761719,71.4950473 31.9269303,72.7735481 34.7203625,72.7263215 C37.3271866,72.8834885 39.8502309,71.7759148 41.4989906,69.7506187 C42.5327705,68.3187425 43.2673841,66.6932145 43.6589602,64.9711115 L52.2758602,64.9711115 C51.6941462,69.1764677 49.6913885,73.0563039 46.6001954,75.9662759 C43.4034649,78.8504477 39.2065139,80.3717393 34.9041897,80.2057907 C29.0217193,80.2057907 24.3954014,78.2909241 21.0252361,74.4611907 C17.6550707,70.6314574 15.9699881,65.3847227 15.9699881,58.7209866 C15.9699881,51.505769 17.8848547,45.9411665 21.7145881,42.027179 C25.0623613,38.6139522 29.6894011,36.7631363 34.4676001,36.9259742 C41.3611202,36.9259742 46.3933898,39.2238142 49.564409,43.8194942 C51.2120993,46.0726745 52.1916344,48.7444959 52.3907522,51.5287474 L43.7164062,51.5287474 C43.3389793,49.898107 42.6182946,48.3666521 41.6023934,47.0364702 C39.8325228,45.1392741 37.2958764,44.149982 34.7088733,44.3479974 C31.7881761,44.2642446 29.0338588,45.7044958 27.4362097,48.1509226 C25.6898513,50.6479088 24.8166721,54.22105 24.8166721,58.8703462 C24.8166721,63.5196425 25.7358081,66.9893809 27.5740801,69.2795615 Z M91.0519103,75.3803267 C87.9268479,78.5973027 83.4077626,80.2057907 77.4946543,80.2057907 C71.581546,80.2057907 67.0816093,78.5973027 63.9948442,75.3803267 C59.8127754,71.4357014 57.7179113,65.7523771 57.7102518,58.3303538 C57.7102518,50.7474818 59.805116,45.0603278 63.9948442,41.2688918 C67.1199067,38.0519158 71.6351623,36.4434278 77.5406111,36.4434278 C83.4460599,36.4434278 87.9651453,38.0519158 91.0978671,41.2688918 C95.264617,45.0986251 97.347992,50.7857792 97.347992,58.3303538 C97.347992,65.7523771 95.264617,71.4357014 91.0978671,75.3803267 L91.0519103,75.3803267 Z M129.161587,79.0568707 L101.357723,79.0568707 C101.392603,76.2708269 102.03567,73.5260319 103.241952,71.0144307 C104.375553,68.3029795 107.056366,65.4345092 111.284392,62.4090199 C113.810057,60.705303 116.199359,58.8076902 118.430674,56.733355 C119.997694,55.1956486 120.897288,53.1034719 120.93532,50.9083306 C120.975922,49.3639188 120.462407,47.855978 119.48768,46.6573266 C118.461668,45.4858866 116.952075,44.8540628 115.397525,44.9454358 C112.961815,44.9454358 111.30737,45.8530826 110.434191,47.6683762 C109.822738,49.2591671 109.514874,50.9504725 109.526544,52.654689 L101.805802,52.654689 C101.809334,49.7544239 102.452701,46.8906564 103.69003,44.267573 C105.796384,40.2157151 109.58782,38.1897862 115.064338,38.1897862 C119.361299,38.1897862 122.79657,39.3387062 125.335683,41.7629274 C127.916819,44.2190567 129.311518,47.6702034 129.161587,51.2300282 C129.200233,54.1395416 128.248103,56.9756753 126.461625,59.2724683 C124.780264,61.2685451 122.818145,63.0100714 120.6366,64.4426083 L117.442603,66.7404483 C115.431993,68.1536199 114.064778,69.1876479 113.31798,69.8195539 C112.583594,70.4493731 111.951776,71.1897239 111.44524,72.0139911 L129.196054,72.0139911 L129.161587,79.0568707 Z" id="Shape"></path>
            </g>
        </g>
    </g>
</svg>