<?xml version="1.0" encoding="utf-8"?>
<!-- Generator: Adobe Illustrator 24.3.0, SVG Export Plug-In . SVG Version: 6.00 Build 0)  -->
<svg version="1.1" id="Layer_1" xmlns="http://www.w3.org/2000/svg" xmlns:xlink="http://www.w3.org/1999/xlink" x="0px" y="0px"
	 viewBox="0 0 250 250" style="enable-background:new 0 0 250 250;" xml:space="preserve">
<style type="text/css">
	.st0{fill-rule:evenodd;clip-rule:evenodd;fill:#B5D9F9;}
	.st1{fill:#09365E;}
</style>
<desc>Created with Sketch.</desc>
<g id="Library-Symbols">
	<g id="Images_x2F_Hazards_x2F_Ocean-acidification">
		<circle id="Oval-2" class="st0" cx="125" cy="125" r="125"/>
		<g id="Group" transform="translate(53.000000, 62.000000)">
			<path id="Shape" class="st1" d="M77.5,43.8c-3.2-0.1-6.2,1.3-8.2,3.8c-2,2.5-3,6.1-3.1,10.8s1,8.2,3.1,10.8c2,2.5,5,3.9,8.2,3.8
				c3.2,0.1,6.2-1.3,8.2-3.8c2-2.5,3-6.1,3-10.8s-1-8.2-3-10.8C83.7,45.1,80.7,43.7,77.5,43.8z"/>
			<path id="Shape_1_" class="st1" d="M142.2,2.1l-2.5,2.4c-7.2,7-18.7,7-25.9,0l-4-4c-0.6-0.6-1.6-0.6-2.2,0l-4,4
				c-7.2,7-18.7,7-25.9,0l-4-4c-0.6-0.6-1.6-0.6-2.2,0l-4,4c-7.2,7-18.7,7-25.9,0l-4-4c-0.6-0.6-1.6-0.6-2.2,0l-4,4
				c-7.2,7-18.7,7-25.9,0L2.7,2.1C2.2,1.7,1.6,1.6,1,1.8S0.1,2.7,0.1,3.3v117.6c0,1.5,0.6,3,1.7,4c1.1,1.1,2.5,1.7,4,1.7h133.5
				c1.5,0,2.9-0.6,4-1.7c1.1-1.1,1.6-2.5,1.6-4V3.3c0-0.6-0.4-1.2-0.9-1.4C143.3,1.6,142.7,1.7,142.2,2.1z M27.6,69.3
				c1.7,2.2,4.4,3.5,7.1,3.4c2.6,0.2,5.1-1,6.8-3c1-1.4,1.8-3.1,2.2-4.8h8.6c-0.6,4.2-2.6,8.1-5.7,11c-3.2,2.9-7.4,4.4-11.7,4.2
				c-5.9,0-10.5-1.9-13.9-5.7S16,65.4,16,58.7c0-7.2,1.9-12.8,5.7-16.7c3.3-3.4,8-5.3,12.8-5.1c6.9,0,11.9,2.3,15.1,6.9
				c1.6,2.3,2.6,4.9,2.8,7.7h-8.7c-0.4-1.6-1.1-3.2-2.1-4.5c-1.8-1.9-4.3-2.9-6.9-2.7c-2.9-0.1-5.7,1.4-7.3,3.8
				c-1.7,2.5-2.6,6.1-2.6,10.7S25.7,67,27.6,69.3z M91.1,75.4c-3.1,3.2-7.6,4.8-13.6,4.8S67.1,78.6,64,75.4c-4.2-3.9-6.3-9.6-6.3-17
				c0-7.6,2.1-13.3,6.3-17.1c3.1-3.2,7.6-4.8,13.5-4.8s10.4,1.6,13.6,4.8c4.2,3.8,6.3,9.5,6.3,17.1C97.3,65.8,95.3,71.4,91.1,75.4
				L91.1,75.4z M129.2,79.1h-27.8c0-2.8,0.7-5.5,1.9-8c1.1-2.7,3.8-5.6,8-8.6c2.5-1.7,4.9-3.6,7.1-5.7c1.6-1.5,2.5-3.6,2.5-5.8
				c0-1.5-0.5-3.1-1.4-4.3c-1-1.2-2.5-1.8-4.1-1.7c-2.4,0-4.1,0.9-5,2.7c-0.6,1.6-0.9,3.3-0.9,5h-7.7c0-2.9,0.6-5.8,1.9-8.4
				c2.1-4.1,5.9-6.1,11.4-6.1c4.3,0,7.7,1.1,10.3,3.6c2.6,2.5,4,5.9,3.8,9.5c0,2.9-0.9,5.7-2.7,8c-1.7,2-3.6,3.7-5.8,5.2l-3.2,2.3
				c-2,1.4-3.4,2.4-4.1,3.1c-0.7,0.6-1.4,1.4-1.9,2.2h17.8L129.2,79.1z"/>
		</g>
	</g>
</g>
</svg>
