<?xml version="1.0" encoding="utf-8"?>
<!-- Generator: Adobe Illustrator 24.3.0, SVG Export Plug-In . SVG Version: 6.00 Build 0)  -->
<svg version="1.1" id="Layer_1" xmlns="http://www.w3.org/2000/svg" xmlns:xlink="http://www.w3.org/1999/xlink" x="0px" y="0px"
	 viewBox="0 0 250 250" style="enable-background:new 0 0 250 250;" xml:space="preserve">
<style type="text/css">
	.st0{fill-rule:evenodd;clip-rule:evenodd;fill:#B5DAF8;}
	.st1{fill:#1286E9;}
	.st2{fill:#09365D;}
</style>
<desc>Created with Sketch.</desc>
<g id="Library-Symbols">
	<g id="Images_x2F_Hazards_x2F_Rain-storm">
		<circle id="Oval-2" class="st0" cx="125" cy="125" r="125"/>
		<g id="rain-storm" transform="translate(38.000000, 36.000000)">
			<path id="Shape" class="st1" d="M119.1,178c-2,0-3.7-1.2-4.5-2.9L67.4,69c-1.1-2.5,0-5.4,2.5-6.5c2.5-1.1,5.4,0,6.5,2.5
				L123.6,171c1.1,2.5,0,5.4-2.5,6.5C120.4,177.9,119.7,178,119.1,178z"/>
			<path id="Shape_1_" class="st1" d="M89,179c-2,0-3.7-1.1-4.6-2.9l-8-18c-0.7-1.6-0.5-3.6,0.5-5c1.1-1.5,2.8-2.2,4.6-2
				c1.8,0.2,3.3,1.3,4.1,3l8,18c1.1,2.5,0,5.5-2.5,6.6C90.4,178.9,89.7,179,89,179z"/>
			<path id="Shape_2_" class="st1" d="M73,143c-2,0-3.8-1.1-4.6-2.9l-22-49c-1.1-2.5,0-5.5,2.5-6.6s5.5,0,6.6,2.5l22,49
				c1.1,2.5,0,5.5-2.5,6.6C74.4,142.9,73.7,143,73,143z"/>
			<path id="Shape_3_" class="st1" d="M149,179c-2,0-3.8-1.2-4.6-3l-8-18c-1.1-2.5,0-5.5,2.5-6.6c2.5-1.1,5.5,0,6.6,2.6l8,18
				c1.1,2.5,0,5.5-2.5,6.6C150.4,178.9,149.7,179,149,179z"/>
			<path id="Shape_4_" class="st1" d="M133,143c-2,0-3.8-1.1-4.6-2.9l-22-49c-0.7-1.6-0.5-3.5,0.5-5c1.1-1.4,2.8-2.2,4.6-2
				s3.3,1.3,4.1,2.9l22,49c1.1,2.5,0,5.5-2.5,6.6C134.4,142.9,133.7,143,133,143z"/>
			<path id="Shape_5_" class="st2" d="M155.3,56.1c-4.3-6.2-10.5-10.9-17.6-13.4c-0.4-7.2-3.6-14-9-18.8c-5.2-5-12.1-7.7-19.3-7.6
				c-1.9,0-3.7,0.2-5.6,0.5c-4.2-5.1-9.5-9.3-15.4-12.2C72.8-3.1,54.1-1,40.6,10.1c-8,6.4-13.5,15.5-15.3,25.6
				C10.1,41.9,0,56.7,0,73.3c0,7.2,1.8,14.2,5.5,20.4c3.5,6.2,8.6,11.3,14.8,14.9c6.1,3.6,13.1,5.5,20.3,5.5h5.3l-5.4-12.2
				C24.8,101.7,12.2,89,12.2,73.3c-0.1-6.9,2.4-13.6,7-18.7c4.4-5.2,10.6-8.6,17.3-9.6v-0.3c-0.1-5.7,1.4-11.4,4.2-16.4
				c2.8-4.9,6.9-9,11.8-11.8c5-2.9,10.6-4.3,16.3-4.3c13.1-0.1,25,7.8,29.9,20.1c3-2.5,6.7-3.9,10.6-3.8c4.3-0.1,8.5,1.6,11.5,4.7
				s4.8,7.2,4.7,11.6c0,2.9-0.8,5.7-2.3,8.1h2.3c6.5,0,12.6,2.5,17.2,7.1s7.1,10.8,7.1,17.3c0,11-7.3,20.7-17.9,23.6l5,11.2
				c2.4-0.8,4.6-1.8,6.8-3.1c5.5-3.2,10.1-7.8,13.3-13.4c3.3-5.5,5-11.9,4.9-18.3C162.1,69.7,159.7,62.3,155.3,56.1z"/>
		</g>
	</g>
</g>
</svg>
