<?xml version="1.0" encoding="UTF-8"?>
<svg width="250px" height="250px" viewBox="0 0 250 250" version="1.1" xmlns="http://www.w3.org/2000/svg" xmlns:xlink="http://www.w3.org/1999/xlink">
    <!-- Generator: Sketch 48.2 (47327) - http://www.bohemiancoding.com/sketch -->
    <title>Images/Hazards/Rain storm</title>
    <desc>Created with Sketch.</desc>
    <defs></defs>
    <g id="Library-Symbols" stroke="none" stroke-width="1" fill="none" fill-rule="evenodd">
        <g id="Images/Hazards/Rain-storm">
            <circle id="Oval-2" fill="#BFEFE9" cx="125" cy="125" r="125"></circle>
            <g id="rain-storm" transform="translate(38.000000, 36.000000)" fill-rule="nonzero">
                <path d="M119.058641,178 C117.104981,177.996935 115.335325,176.844755 114.539391,175.057625 L67.4262063,68.9623789 C66.3186449,66.4623347 67.4441263,63.5363064 69.9400393,62.4269117 C72.4359523,61.3175171 75.3571455,62.4448614 76.4647069,64.9449056 L123.577892,171.040152 C124.67782,173.540382 123.554437,176.460957 121.064059,177.575619 C120.431896,177.853902 119.749158,177.998381 119.058641,178 Z" id="Shape" fill="#4AA49B"></path>
                <path d="M88.9895896,178.993596 C87.0352069,179.011124 85.2479162,177.889038 84.4071863,176.116698 L76.4309405,158.07855 C75.7044618,156.434044 75.9065689,154.52514 76.9611301,153.070905 C78.0156913,151.61667 79.7624936,150.838036 81.5435335,151.028308 C83.3245734,151.218579 84.8692685,152.348849 85.5957471,153.993356 L93.5719929,172.031504 C94.6872925,174.573879 93.5482102,177.543686 91.0230311,178.677137 C90.3737794,178.920759 89.6817921,179.028451 88.9895896,178.993596 Z" id="Shape" fill="#4AA49B"></path>
                <path d="M72.9955692,142.999994 C71.0204747,143.003056 69.2284327,141.850252 68.421467,140.057518 L46.4371883,91.0162464 C45.3082897,88.504038 46.4410318,85.5574088 48.9672386,84.4347657 C51.4934454,83.3121226 54.4564939,84.4385878 55.5853927,86.950796 L77.5696714,135.992067 C78.6858407,138.504611 77.5565698,141.442211 75.0396211,142.573548 C74.3943785,142.852004 73.6989422,142.997091 72.9955692,142.999994 Z" id="Shape" fill="#4AA49B"></path>
                <path d="M148.98993,179 C147.009103,178.996896 145.214839,177.829873 144.407837,176.01972 L136.432133,158.052071 C135.30917,155.51982 136.450302,152.556098 138.980922,151.432411 C141.511541,150.308725 144.473355,151.450592 145.596317,153.982843 L153.572022,171.950492 C154.687246,174.482931 153.548241,177.44113 151.023233,178.570152 C150.38228,178.85202 149.690048,178.998361 148.98993,179 Z" id="Shape" fill="#4AA49B"></path>
                <path d="M132.993527,142.999994 C131.018493,143.003056 129.226506,141.850229 128.419565,140.057459 L106.43596,91.0152123 C105.705713,89.3900662 105.902729,87.5009262 106.952794,86.0594133 C108.002859,84.6179003 109.746444,83.8430145 111.526756,84.0266477 C113.307068,84.2102809 114.853637,85.324535 115.583884,86.9496812 L137.567489,135.991928 C138.690284,138.508165 137.55176,141.453346 135.023222,142.57354 C134.383406,142.853182 133.692403,142.998367 132.993527,142.999994 Z" id="Shape" fill="#4AA49B"></path>
                <path d="M155.327064,56.1097799 C151.013602,49.8751072 144.829405,45.1905618 137.678266,42.7407681 C137.286825,35.514856 134.050592,28.7425884 128.683895,23.9187941 C123.474892,18.9393947 116.537492,16.2011924 109.349538,16.2874945 C107.482819,16.2837361 105.619623,16.4505263 103.782943,16.785807 C99.5391307,11.6833187 94.2863283,7.5233783 88.3579502,4.57003262 C72.7502595,-3.1205355 54.11736,-0.980224963 40.6382074,10.0514698 C32.6239589,16.4560212 27.1853893,25.5586772 25.3265297,35.6789685 C10.0574783,41.8629952 0.0417172313,56.7333548 0.000646583867,73.280204 C-0.040082847,80.4367032 1.84410352,87.4712447 5.45392679,93.639828 C8.98993212,99.8330213 14.0976921,104.972067 20.2556873,108.532252 C26.3969934,112.148531 33.3933048,114.036961 40.5107281,113.999452 L45.7940359,113.999452 L40.3690845,101.783678 C24.7678302,101.72095 12.1535462,88.9906129 12.153671,73.308679 C12.0599856,66.4105302 14.5471546,59.7285901 19.1225382,54.5863675 C23.5351754,49.3659966 29.7080174,45.9645559 36.4597199,45.0330055 L36.4597199,44.7767305 C36.3993649,39.0269133 37.8662427,33.3650186 40.7090292,28.3751314 C43.5097395,23.4408724 47.5740749,19.3506354 52.4796158,16.529532 C57.4493299,13.6728262 63.0864735,12.19852 68.8111277,12.2582822 C81.9332136,12.1535033 93.7923496,20.1022962 98.7404292,32.3189187 C101.704339,29.8044618 105.471444,28.4495928 109.349538,28.5032689 C113.666939,28.4375762 117.827288,30.1295934 120.8845,33.1945463 C123.941712,36.2594992 125.635937,40.4368805 125.581899,44.7767305 C125.58455,47.6509435 124.795223,50.4697418 123.301437,52.9205801 L125.581899,52.9205801 C132.034034,52.9016 138.22735,55.4695354 142.789718,60.0554604 C147.352086,64.6413854 149.906831,70.8666793 149.887948,77.3521288 C149.912936,88.3741922 142.588556,98.0465565 132.012521,100.957903 L136.984212,112.162815 C139.346909,111.361942 141.620639,110.31702 143.768943,109.044802 C149.265037,105.807541 153.840343,101.203709 157.055116,95.6757904 C160.337633,90.136662 162.047329,83.799299 161.99848,77.3521288 C162.068293,69.7399424 159.732308,62.3019694 155.327064,56.1097799 Z" id="Shape" fill="#15514B"></path>
            </g>
        </g>
    </g>
</svg>