<?xml version="1.0" encoding="UTF-8"?>
<svg width="250px" height="250px" viewBox="0 0 250 250" version="1.1" xmlns="http://www.w3.org/2000/svg" xmlns:xlink="http://www.w3.org/1999/xlink">
    <!-- Generator: Sketch 48.2 (47327) - http://www.bohemiancoding.com/sketch -->
    <title>Images/Hazards/Salt water intrusion </title>
    <desc>Created with Sketch.</desc>
    <defs></defs>
    <g id="Library-Symbols" stroke="none" stroke-width="1" fill="none" fill-rule="evenodd">
        <g id="Images/Hazards/Salt-water-intrusion-">
            <circle id="Oval-2" fill="#BFEFE9" cx="125" cy="125" r="125"></circle>
            <g id="salt-water-intrusion" transform="translate(53.000000, 53.000000)" fill-rule="nonzero">
                <path d="M94.995,72.2851563 C92.9266667,67.9888021 88.9496875,61.6735417 83.0640625,53.339375 C77.1784375,45.0052083 72.73,38.3173438 69.71875,33.2757813 C65.0607752,24.7026596 61.3032801,15.6701458 58.5064063,6.3228125 C57.8773343,3.84760842 56.1129735,1.81668961 53.75,0.8478125 C51.4765346,-0.178405108 48.8717466,-0.178405108 46.5982813,0.8478125 C44.2542821,1.88890818 42.4658505,3.88066496 41.6821875,6.3228125 C39.0724082,15.6506062 35.2935805,24.6109501 30.435625,32.990625 C27.4471875,38.0397917 23.0025521,44.7770833 17.1017188,53.2025 C11.2008854,61.6279167 7.22390625,67.9888021 5.17078125,72.2851563 C1.89809502,79.0230456 0.179145089,86.4094631 0.140625,93.9 C0.0882065695,102.68285 2.41786957,111.315611 6.88171875,118.879688 C11.2700808,126.449954 17.5614521,132.741325 25.1317188,137.129688 C32.6869491,141.583574 41.3070024,143.909058 50.0771875,143.859375 C58.8638295,143.913288 67.5006541,141.583592 75.0682813,137.118281 C82.6385479,132.729919 88.9299192,126.438548 93.3182813,118.868281 C101.664491,104.604175 102.298509,87.1044337 95.0064063,72.27375 L94.995,72.2851563 Z M83.1325,91.8354688 L60.4454688,114.5225 C59.9192055,115.049076 59.2052514,115.34493 58.4607813,115.34493 C57.7163111,115.34493 57.002357,115.049076 56.4760938,114.5225 L53.75,111.921875 C53.212295,111.407209 52.9321111,110.679567 52.9857813,109.937188 C53.0161251,109.188153 53.3300933,108.478666 53.8640625,107.9525 L67.89375,94.5045313 L19.0179688,94.5045313 C17.4682923,94.5045313 16.2120313,93.2482702 16.2120313,91.6985938 L16.2120313,87.96875 C16.2120313,86.4190735 17.4682923,85.1628125 19.0179688,85.1628125 L67.9279688,85.1628125 L53.8982813,71.72625 C53.3590008,71.1944137 53.0445911,70.4757629 53.02,69.71875 C52.9643773,68.9894558 53.2311802,68.2724231 53.75,67.756875 L56.4760938,65.15625 C57.002357,64.6296736 57.7163111,64.3338197 58.4607813,64.3338197 C59.2052514,64.3338197 59.9192055,64.6296736 60.4454688,65.15625 L83.1325,87.8660938 C83.6590764,88.392357 83.9549303,89.1063111 83.9549303,89.8507813 C83.9549303,90.5952514 83.6590764,91.3092055 83.1325,91.8354688 Z" id="Shape" fill="#15514B"></path>
                <path d="M138.88625,72.2851563 C136.817917,67.9811979 132.840938,61.6659375 126.955313,53.339375 C121.069688,45.0128125 116.625052,38.3249479 113.621406,33.2757813 C108.959502,24.7031192 105.198178,15.6705909 102.397656,6.3228125 C101.763831,3.84272221 99.9901756,1.81084948 97.6184375,0.8478125 C96.4732426,0.370518839 95.2432879,0.129959888 94.0026563,0.140625 C92.7834926,0.144883507 91.5788254,0.405247066 90.4667188,0.90484375 C88.1227196,1.94593943 86.334288,3.93769621 85.550625,6.37984375 C83.363236,14.2197852 80.3503361,21.8055638 76.5625,29.0098438 L76.7335938,29.3292188 C77.9996875,31.4735938 79.5851563,33.9601563 81.4215625,36.7546875 C86.4611947,27.959642 90.3993334,18.5778308 93.1471875,8.82078125 C93.3525,8.3075 93.5235938,8.22765625 93.6832813,8.15921875 C93.7872846,8.13112502 93.8950619,8.11957745 94.0026563,8.125 C94.1803874,8.14054553 94.354065,8.18685957 94.5159375,8.261875 L94.6185938,8.261875 C94.6587459,8.34688355 94.6930444,8.43453547 94.72125,8.52421875 L94.72125,8.61546875 C97.6844412,18.503264 101.659644,28.0590392 106.58375,37.1310938 L106.652188,37.2565625 L106.732031,37.3934375 C109.823125,42.6060938 114.419844,49.5410938 120.419531,57.993125 C126.031406,65.9775 129.818281,71.8973438 131.688906,75.8210938 C137.804972,88.2527731 137.28243,102.922489 130.297344,114.8875 C126.612263,121.281587 121.3044,126.589451 114.910313,130.274531 C108.577253,134.052193 101.331052,136.024486 93.9570313,135.977656 C92.6453125,135.977656 91.3678125,135.897813 90.1017188,135.795156 C87.5191337,138.265286 84.7168161,140.494923 81.7295313,142.456406 C85.7353778,143.428799 89.8464599,143.90006 93.9684375,143.859375 C102.751657,143.914648 111.385165,141.584783 118.948125,137.118281 C126.518392,132.729919 132.809763,126.438548 137.198125,118.868281 C145.5301,104.600042 146.163856,87.1075261 138.88625,72.27375 L138.88625,72.2851563 Z" id="Shape" fill="#4AA49B"></path>
            </g>
        </g>
    </g>
</svg>