<?xml version="1.0" encoding="utf-8"?>
<!-- Generator: Adobe Illustrator 24.3.0, SVG Export Plug-In . SVG Version: 6.00 Build 0)  -->
<svg version="1.1" id="Layer_1" xmlns="http://www.w3.org/2000/svg" xmlns:xlink="http://www.w3.org/1999/xlink" x="0px" y="0px"
	 viewBox="0 0 250 250" style="enable-background:new 0 0 250 250;" xml:space="preserve">
<style type="text/css">
	.st0{fill-rule:evenodd;clip-rule:evenodd;fill:#B5DAF8;}
	.st1{fill:#08355E;}
	.st2{fill:#1286E8;}
</style>
<desc>Created with Sketch.</desc>
<g id="Library-Symbols">
	<g id="Images_x2F_Hazards_x2F_Salt-water-intrusion-">
		<circle id="Oval-2" class="st0" cx="125" cy="125" r="125"/>
		<g id="salt-water-intrusion" transform="translate(53.000000, 53.000000)">
			<path id="Shape" class="st1" d="M95,72.3c-2.1-4.3-6-10.6-11.9-18.9c-5.9-8.3-10.3-15-13.3-20.1c-4.7-8.6-8.4-17.6-11.2-27
				c-0.6-2.5-2.4-4.5-4.8-5.5c-2.3-1-4.9-1-7.2,0c-2.3,1-4.1,3-4.9,5.5c-2.6,9.3-6.4,18.3-11.2,26.7c-3,5-7.4,11.8-13.3,20.2
				S7.2,68,5.2,72.3c-3.3,6.7-5,14.1-5,21.6c-0.1,8.8,2.3,17.4,6.7,25c4.4,7.6,10.7,13.9,18.2,18.2c7.6,4.5,16.2,6.8,24.9,6.7
				c8.8,0.1,17.4-2.3,25-6.7c7.6-4.4,13.9-10.7,18.2-18.3C101.7,104.6,102.3,87.1,95,72.3L95,72.3z M83.1,91.8l-22.7,22.7
				c-0.5,0.5-1.2,0.8-2,0.8s-1.5-0.3-2-0.8l-2.7-2.6c-0.5-0.5-0.8-1.2-0.8-2c0-0.7,0.3-1.5,0.9-2l14-13.4H19c-1.5,0-2.8-1.3-2.8-2.8
				V88c0-1.5,1.3-2.8,2.8-2.8h48.9l-14-13.4c-0.5-0.5-0.9-1.3-0.9-2c-0.1-0.7,0.2-1.4,0.7-2l2.7-2.6c0.5-0.5,1.2-0.8,2-0.8
				s1.5,0.3,2,0.8l22.7,22.7c0.5,0.5,0.8,1.2,0.8,2C84,90.6,83.7,91.3,83.1,91.8z"/>
			<path id="Shape_1_" class="st2" d="M138.9,72.3c-2.1-4.3-6-10.6-11.9-18.9s-10.3-15-13.3-20.1c-4.7-8.6-8.4-17.6-11.2-27
				c-0.6-2.5-2.4-4.5-4.8-5.5c-1.1-0.5-2.4-0.7-3.6-0.7c-1.2,0-2.4,0.3-3.5,0.8c-2.3,1-4.1,3-4.9,5.5c-2.2,7.8-5.2,15.4-9,22.6
				l0.2,0.3c1.3,2.1,2.9,4.6,4.7,7.4c5-8.8,9-18.2,11.7-27.9c0.2-0.5,0.4-0.6,0.5-0.7c0.1,0,0.2,0,0.3,0c0.2,0,0.4,0.1,0.5,0.1h0.1
				c0,0.1,0.1,0.2,0.1,0.3v0.1c3,9.9,6.9,19.4,11.9,28.5l0.1,0.1l0.1,0.1c3.1,5.2,7.7,12.1,13.7,20.6c5.6,8,9.4,13.9,11.3,17.8
				c6.1,12.4,5.6,27.1-1.4,39.1c-3.7,6.4-9,11.7-15.4,15.4c-6.3,3.8-13.6,5.7-21,5.7c-1.3,0-2.6-0.1-3.9-0.2
				c-2.6,2.5-5.4,4.7-8.4,6.7c4,1,8.1,1.4,12.2,1.4c8.8,0.1,17.4-2.3,25-6.7c7.6-4.4,13.9-10.7,18.2-18.3
				C145.5,104.6,146.2,87.1,138.9,72.3L138.9,72.3z"/>
		</g>
	</g>
</g>
</svg>
