<?xml version="1.0" encoding="utf-8"?>
<!-- Generator: Adobe Illustrator 24.3.0, SVG Export Plug-In . SVG Version: 6.00 Build 0)  -->
<svg version="1.1" id="Layer_1" xmlns="http://www.w3.org/2000/svg" xmlns:xlink="http://www.w3.org/1999/xlink" x="0px" y="0px"
	 viewBox="0 0 250 250" style="enable-background:new 0 0 250 250;" xml:space="preserve">
<style type="text/css">
	.st0{fill-rule:evenodd;clip-rule:evenodd;fill:#B4DAF8;}
	.st1{fill:#1485E9;}
	.st2{fill:#07365E;}
</style>
<desc>Created with Sketch.</desc>
<g id="Library-Symbols">
	<g id="Images_x2F_Hazards_x2F_Wildfires">
		<circle id="Oval-2" class="st0" cx="125" cy="125" r="125"/>
		<path id="Rectangle-path" class="st1" d="M57,167.5h137c2.2,0,4,1.8,4,4v22.3c0,2.2-1.8,4-4,4H57c-2.2,0-4-1.8-4-4v-22.3
			C53,169.3,54.8,167.5,57,167.5z"/>
		<path id="Shape" class="st2" d="M164.2,109.7l-0.2-0.4c-2-4.8-4.9-9.3-8.5-13.1c-6.3-6.8-12.6-16.3-13.4-19.8
			c-1.6-6.1,0.4-12.6,5.3-16.7c0.8-0.7,1.1-1.7,1-2.7c-0.2-1-0.9-1.8-1.8-2.1c-11.4-4.1-24.1-1.6-33.2,6.5s-13,20.4-10.3,32.2
			c0.1,0.5,0.3,1.1,0.5,1.6c-1-1.1-2.2-2-3.5-2.8c-1.9-1.2-4.1-2-6.4-2.4c-1-0.2-2,0.2-2.6,1c-0.6,0.8-0.8,1.9-0.4,2.8
			c1.7,4,1.4,8.6-0.9,12.2c-0.8,1.5-1.6,2.8-2.3,4.3c-2.5,5.4-3.7,11.3-3.7,17.3c-0.1,7.4,1.9,14.6,5.7,20.9
			c3.7,6.3,9,11.5,15.4,15.2c5,2.9,10.5,4.8,16.2,5.4c-2.3-0.5-4.5-1.4-6.6-2.6c-7.1-4.1-11.5-11.7-11.5-19.9
			c-0.4-12.4,12.5-30.5,19.2-38.9c0.6-0.8,1.6-1.2,2.6-1c1,0.2,1.8,0.9,2.2,1.8c1.6,4.3,5.6,11.3,15.5,20.9c5.2,5,6.6,13.8,6.6,17.3
			c0,4-1.1,8-3.1,11.5c-2,3.5-4.9,6.4-8.4,8.4c-1.9,1.2-4.1,2-6.2,2.5c5.4-0.7,10.7-2.5,15.4-5.3c6.3-3.7,11.5-8.9,15.2-15.2
			c3.8-6.3,5.7-13.6,5.7-20.9C167.5,121.4,166.4,115.4,164.2,109.7z"/>
	</g>
</g>
</svg>
