<?xml version="1.0" encoding="UTF-8"?>
<svg width="250px" height="250px" viewBox="0 0 250 250" version="1.1" xmlns="http://www.w3.org/2000/svg" xmlns:xlink="http://www.w3.org/1999/xlink">
    <!-- Generator: Sketch 48.2 (47327) - http://www.bohemiancoding.com/sketch -->
    <title>Images/Hazards/Wildfires</title>
    <desc>Created with Sketch.</desc>
    <defs></defs>
    <g id="Library-Symbols" stroke="none" stroke-width="1" fill="none" fill-rule="evenodd">
        <g id="Images/Hazards/Wildfires">
            <circle id="Oval-2" fill="#BFEFE9" cx="125" cy="125" r="125"></circle>
            <rect id="Rectangle-path" fill="#4AA49B" fill-rule="nonzero" x="53.0242063" y="167.469444" width="145" height="30.3003968" rx="4"></rect>
            <path d="M164.213889,109.665079 L164.029762,109.250794 C162.030553,104.417515 159.163912,99.9907968 155.571429,96.1892857 C149.230556,89.422619 142.981746,79.9285714 142.164683,76.4301587 C140.557187,70.3135442 142.607619,63.8175243 147.435317,59.7321429 C148.205937,59.0791199 148.56834,58.0637445 148.385349,57.0703628 C148.202358,56.0769812 147.501934,55.2573898 146.549206,54.9218254 C135.135148,50.8695609 122.420359,53.3475628 113.363348,61.3894609 C104.306337,69.431359 100.341362,81.7636471 103.014683,93.5769841 C103.138401,94.1107385 103.292084,94.6371011 103.475,95.1535714 C102.450179,94.0725549 101.289745,93.1287351 100.022619,92.3456349 C98.0885963,91.1290528 95.9273229,90.3185753 93.6702381,89.9634921 C92.6744802,89.8099915 91.673131,90.2040057 91.0489816,90.9949125 C90.4248322,91.7858194 90.2743875,92.8513304 90.6551587,93.784127 C92.3679819,97.7694141 92.0152814,102.341617 89.7115079,106.017063 C88.9059524,107.467063 88.1464286,108.848016 87.4099206,110.321032 C84.9535925,115.743497 83.6899387,121.630083 83.7043651,127.582937 C83.6528165,134.94202 85.6104357,142.175662 89.3662698,148.504365 C93.0986197,154.802543 98.3894167,160.033893 104.729365,163.694841 C109.680127,166.636714 115.206544,168.477544 120.93254,169.092063 C118.613736,168.58161 116.391492,167.703591 114.35,166.49127 C107.244603,162.364446 102.863508,154.776389 102.842063,146.559524 C102.439286,134.176984 115.385714,116.063492 122.025794,107.628175 C122.652327,106.826363 123.664954,106.428169 124.669817,106.588468 C125.674681,106.748768 126.513158,107.442257 126.859127,108.399206 C128.470238,112.737698 132.486508,119.7 142.371825,129.286111 C147.538889,134.303571 148.954365,143.038095 148.954365,146.548016 C148.976138,150.595634 147.898224,154.573175 145.835714,158.055952 C143.799676,161.53225 140.902494,164.425468 137.423413,166.456746 C135.479892,167.607957 133.372991,168.457702 131.174603,168.976984 C136.621,168.279243 141.86588,166.469583 146.58373,163.660317 C152.880153,159.975766 158.126173,154.737671 161.820238,148.446825 C165.576072,142.118122 167.533691,134.884481 167.482143,127.525397 C167.532732,121.418783 166.423684,115.358067 164.213889,109.665079 Z" id="Shape" fill="#15514B" fill-rule="nonzero"></path>
        </g>
    </g>
</svg>