<?xml version="1.0" encoding="utf-8"?>
<!-- Generator: Adobe Illustrator 24.3.0, SVG Export Plug-In . SVG Version: 6.00 Build 0)  -->
<svg version="1.1" id="Layer_1" xmlns="http://www.w3.org/2000/svg" xmlns:xlink="http://www.w3.org/1999/xlink" x="0px" y="0px"
	 viewBox="0 0 250 250" style="enable-background:new 0 0 250 250;" xml:space="preserve">
<style type="text/css">
	.st0{fill-rule:evenodd;clip-rule:evenodd;fill:#B5DAF8;}
	.st1{fill:#1286E9;}
	.st2{fill-rule:evenodd;clip-rule:evenodd;fill:#1286E9;}
	.st3{fill:#08375F;}
</style>
<desc>Created with Sketch.</desc>
<g id="Library-Symbols">
	<g id="Images_x2F_Hazards_x2F_Drought">
		<circle id="Oval-2" class="st0" cx="125" cy="125" r="125"/>
		<g id="drought" transform="translate(50.000000, 50.000000)">
			<path id="Shape" class="st1" d="M119.1,11.5c0.3,0.8,1,1.3,1.8,1.6c0.7,0.3,1.6,0.2,2.2-0.2l8.9-5.5c1.1-0.7,2.5-0.6,3.5,0.2
				c1.1,0.6,1.6,2,1.2,3.2l-2.5,10.1c-0.2,0.8,0,1.6,0.5,2.2c0.5,0.7,1.2,1.1,2,1.2l10.5,0.8c1.3,0.1,2.4,0.9,2.7,2.1
				c0.5,1.2,0.1,2.6-1,3.4L141,37c-0.7,0.5-1.1,1.3-1.1,2.1c0,0.8,0.4,1.6,1.1,2.1l7.8,6.6c1.1,0.8,1.5,2.1,1,3.4
				c-0.3,1.2-1.4,2.1-2.7,2.1l-10.5,0.8c-0.8,0.1-1.5,0.5-2,1.2c-0.5,0.6-0.7,1.4-0.5,2.2l2.5,10.1c0.4,1.2-0.1,2.6-1.2,3.2
				c-1,0.8-2.4,0.9-3.5,0.2l-8.9-5.5c-0.7-0.4-1.5-0.5-2.2-0.2c-0.8,0.3-1.4,0.9-1.8,1.6l-3.8,9.5c-0.5,1.2-1.6,2-2.9,2
				c-1.3,0-2.5-0.8-2.9-2l-3.8-9.5c-0.3-0.8-1-1.3-1.8-1.6c-0.7-0.3-1.6-0.2-2.2,0.2l-8.9,5.4c-1.1,0.7-2.5,0.7-3.5-0.2
				c-1.1-0.6-1.6-2-1.2-3.2l2.5-10.1c0.2-0.8,0-1.6-0.5-2.2c-0.5-0.7-1.2-1.1-2-1.2l-10.5-0.8c-1.3,0-2.4-0.9-2.7-2.1
				c-0.5-1.2,0-2.6,1.1-3.3l7.8-6.6c0.7-0.5,1.1-1.3,1.1-2.1c0-0.8-0.4-1.6-1.1-2.1l-7.8-6.6c-1.1-0.8-1.5-2.1-1-3.4
				c0.3-1.2,1.4-2.1,2.7-2.2L88,24.1c0.8-0.1,1.5-0.5,2-1.2c0.5-0.6,0.7-1.4,0.5-2.2L88,10.7c-0.4-1.2,0.1-2.6,1.2-3.2
				c1-0.7,2.4-0.8,3.4-0.1l8.9,5.5c0.7,0.4,1.5,0.5,2.2,0.2c0.8-0.3,1.4-0.8,1.8-1.6l3.8-9.5c0.5-1.2,1.6-2,2.9-2s2.5,0.8,2.9,2
				L119.1,11.5z M130.4,28.7c-1.9-3.1-4.5-5.7-7.6-7.6c-6.5-3.8-14.4-3.8-20.9,0c-3.1,1.8-5.8,4.4-7.6,7.6c-3.8,6.4-3.8,14.4,0,20.8
				c1.8,3.1,4.5,5.7,7.6,7.6c6.4,3.8,14.4,3.8,20.9,0c3.1-1.8,5.8-4.4,7.6-7.6C134.2,43.1,134.2,35.1,130.4,28.7z"/>
			<path id="Path" class="st2" d="M126.1,47.1c-1.4,2.4-3.4,4.4-5.8,5.8c-4.9,2.9-11,2.9-16,0c-2.4-1.4-4.4-3.4-5.8-5.8
				c-2.9-4.9-2.9-11,0-15.9c1.4-2.4,3.4-4.4,5.8-5.8c4.9-2.9,11-2.9,16,0c2.4,1.4,4.4,3.4,5.8,5.8C129,36.1,129,42.2,126.1,47.1z"/>
			<polygon id="Shape_1_" class="st3" points="80.6,120.4 84.2,87.2 72.2,87.2 55.4,102 			"/>
			<polygon id="Shape_2_" class="st3" points="20.2,132.3 12.6,150 25.9,150 			"/>
			<polygon id="Shape_3_" class="st3" points="51.4,99 64.3,87.2 39.2,87.2 			"/>
			<polygon id="Shape_4_" class="st3" points="52.8,104.9 24.4,125.5 32.1,149.3 73.5,149.3 81.3,125.5 			"/>
			<path id="Shape_5_" class="st3" d="M18.8,124.5l0.1-0.1L0.6,90.1C0.2,90.8,0,91.6,0,92.4v52.8c0,2.6,2.2,4.8,4.9,4.8H8l11.2-24.5
				L18.8,124.5z"/>
			<polygon id="Shape_6_" class="st3" points="22.2,121.2 48.8,102 32.7,87.2 4.4,87.2 			"/>
			<path id="Shape_7_" class="st3" d="M150,108.6V91.9c0-2.6-2.1-4.7-4.7-4.7H95.3L150,108.6z"/>
			<polygon id="Shape_8_" class="st3" points="84,132.3 78.3,150 92.4,150 			"/>
			<path id="Shape_9_" class="st3" d="M111.6,150h33.7c2.6,0,4.8-2.2,4.8-4.8v-24.7L111.6,150z"/>
			<polygon id="Shape_10_" class="st3" points="150,113.8 88.7,90.1 85,123.3 85.9,123.9 85.5,125.1 97.1,149.3 103.4,149.3 
				150,114.4 			"/>
		</g>
	</g>
</g>
</svg>
