<?xml version="1.0" encoding="utf-8"?>
<!-- Generator: Adobe Illustrator 24.3.0, SVG Export Plug-In . SVG Version: 6.00 Build 0)  -->
<svg version="1.1" id="Layer_1" xmlns="http://www.w3.org/2000/svg" xmlns:xlink="http://www.w3.org/1999/xlink" x="0px" y="0px"
	 viewBox="0 0 250 250" style="enable-background:new 0 0 250 250;" xml:space="preserve">
<style type="text/css">
	.st0{fill-rule:evenodd;clip-rule:evenodd;fill:#B5DAF9;}
	.st1{fill:#08355E;}
	.st2{fill-rule:evenodd;clip-rule:evenodd;fill:#08355E;}
	.st3{fill:#1286E9;}
</style>
<desc>Created with Sketch.</desc>
<g id="Library-Symbols">
	<g id="Images_x2F_Hazards_x2F_Extreme-hot-days">
		<circle id="Oval-2" class="st0" cx="125" cy="125" r="125"/>
		<g id="extreme-hot-days" transform="translate(51.000000, 51.000000)">
			<path id="Shape" class="st1" d="M118.4,11.7c0.3,0.7,1,1.3,1.7,1.6c0.7,0.3,1.5,0.2,2.2-0.2l8.8-5.5c1-0.7,2.4-0.7,3.4,0.1
				c1.1,0.6,1.6,2,1.2,3.2l-2.4,10c-0.2,0.8,0,1.6,0.5,2.2c0.5,0.7,1.2,1.1,2,1.2l10.3,0.8c1.3,0.1,2.3,0.9,2.7,2.1
				c0.5,1.2,0.1,2.6-1,3.4l-7.8,6.5c-0.7,0.5-1.1,1.3-1.1,2.1c0,0.8,0.4,1.6,1.1,2.1l7.8,6.5c1.1,0.7,1.5,2.1,1,3.3
				c-0.3,1.2-1.4,2.1-2.7,2.1l-10.3,0.8c-0.8,0.1-1.5,0.5-2,1.2c-0.5,0.6-0.7,1.4-0.5,2.2l2.4,10c0.4,1.2-0.1,2.6-1.2,3.2
				c-1,0.8-2.4,0.9-3.4,0.2l-8.8-5.5c-0.7-0.4-1.5-0.5-2.2-0.2c-0.8,0.3-1.4,0.8-1.7,1.6l-3.8,9.4c-0.5,1.2-1.6,2-2.9,2
				s-2.4-0.8-2.9-2l-3.8-9.4c-0.3-0.8-1-1.3-1.8-1.6c-0.7-0.3-1.5-0.2-2.2,0.2l-8.8,5.4c-1,0.7-2.4,0.7-3.4-0.2
				c-1.1-0.6-1.6-2-1.2-3.2l2.4-10c0.2-0.8,0.1-1.6-0.4-2.2c-0.5-0.7-1.2-1.1-2-1.2l-10.3-0.8c-1.3-0.1-2.3-0.9-2.7-2.1
				c-0.5-1.2,0-2.6,1.1-3.3l7.8-6.5c0.7-0.5,1.1-1.3,1.1-2.1c0-0.8-0.4-1.6-1.1-2.1l-7.8-6.5c-1.1-0.7-1.5-2.1-1-3.4
				c0.3-1.2,1.4-2.1,2.7-2.1l10.3-0.8c0.8-0.1,1.5-0.5,2-1.2c0.5-0.6,0.7-1.4,0.4-2.2l-2.4-10c-0.4-1.2,0.1-2.6,1.2-3.2
				c1-0.7,2.3-0.8,3.3-0.1l8.8,5.5c0.7,0.4,1.5,0.5,2.2,0.2c0.8-0.3,1.4-0.8,1.8-1.6l3.8-9.4c0.5-1.2,1.6-2,2.9-2s2.4,0.8,2.9,2
				L118.4,11.7z M129.5,28.9c-1.8-3.1-4.4-5.7-7.5-7.5c-6.4-3.7-14.3-3.7-20.7,0c-3.1,1.8-5.7,4.4-7.5,7.5c-3.7,6.4-3.7,14.3,0,20.7
				c1.8,3.1,4.4,5.7,7.5,7.5c6.4,3.8,14.3,3.8,20.7,0c3.1-1.8,5.7-4.4,7.5-7.5C133.3,43.2,133.3,35.3,129.5,28.9L129.5,28.9z"/>
			<path id="Path" class="st2" d="M125.4,47.1c-1.4,2.4-3.4,4.4-5.8,5.8c-4.9,2.8-10.9,2.8-15.8,0c-2.4-1.4-4.4-3.4-5.8-5.8
				c-2.8-4.9-2.8-10.9,0-15.8c1.4-2.4,3.4-4.4,5.8-5.8c4.9-2.8,10.9-2.8,15.8,0c2.4,1.4,4.4,3.4,5.8,5.8
				C128.2,36.2,128.2,42.3,125.4,47.1z"/>
			<path id="Shape_1_" class="st3" d="M65.1,28v58.9c10.5,12.1,12.3,29.4,4.4,43.4c-3.2,5.6-7.9,10.3-13.5,13.5
				c-5.7,3.3-12.1,5-18.7,4.9H37c-6.5,0-12.9-1.7-18.4-5.1c-5.6-3.3-10.3-8-13.5-13.7c-3.3-5.7-5-12.1-4.9-18.7
				c-0.1-9,3.2-17.7,9.3-24.4V28c-0.1-7.4,2.8-14.5,8.1-19.7C22.7,3,29.9,0.1,37.3,0.2C44.7,0.1,51.8,3,57,8.3
				C62.3,13.5,65.3,20.6,65.1,28z M37.3,134.8c6.2,0.1,12.1-2.4,16.4-6.8c4.4-4.3,6.9-10.2,6.8-16.4c0.1-3.9-1-7.7-2.9-11
				c-1.4-2.5-3.2-4.9-5.2-7l-1.2-1.4V28c0-3.7-1.4-7.2-4.1-9.9c-2.6-2.6-6.2-4.1-9.9-4.1c-3.7,0-7.2,1.4-9.9,4.1s-4.1,6.2-4.1,9.9
				v64.2l-1.2,1.4c-2.1,2.1-3.8,4.4-5.2,7c-2,3.3-3,7.2-2.9,11c0,6.1,2.4,12,6.8,16.2c4.1,4.5,10,7,16.1,7L37.3,134.8z"/>
			<path id="Shape_2_" class="st1" d="M51.5,103.2c-1.4-2.5-3.5-4.6-6.1-6l-0.9-0.5V28c-0.1-4.1-3.4-7.4-7.5-7.5
				c-4.1,0.1-7.4,3.4-7.5,7.5v68.6l-0.9,0.5c-2.6,1.3-4.7,3.4-6.1,6c-1.5,2.6-2.2,5.5-2.2,8.4c-0.1,4.5,1.7,8.8,4.8,11.9
				c3.2,3.2,7.5,4.9,11.9,4.8c4.5,0.1,8.8-1.7,12-4.8c3.2-3.2,4.9-7.5,4.8-12C53.8,108.6,53,105.7,51.5,103.2z"/>
		</g>
	</g>
</g>
</svg>
