<?xml version="1.0" standalone="no"?>
<!DOCTYPE svg PUBLIC "-//W3C//DTD SVG 1.1//EN" "http://www.w3.org/Graphics/SVG/1.1/DTD/svg11.dtd" >
<svg xmlns="http://www.w3.org/2000/svg">
<metadata></metadata>
<defs>
<font id="cesansregular" horiz-adv-x="1138" >
<font-face units-per-em="2048" ascent="1638" descent="-410" />
<missing-glyph horiz-adv-x="569" />
<glyph horiz-adv-x="0" />
<glyph horiz-adv-x="682" />
<glyph unicode=" "  horiz-adv-x="569" />
<glyph unicode="&#x09;" horiz-adv-x="569" />
<glyph unicode="&#xa0;" horiz-adv-x="569" />
<glyph unicode="!" horiz-adv-x="684" d="M227 90q0 47 34 81t81 34t81 -34t34 -81t-34 -81t-81 -34t-81 34t-34 81zM262 350v1190h160v-1190h-160z" />
<glyph unicode="&#x22;" horiz-adv-x="681" d="M74 1024v516h159v-516h-159zM449 1024v516h159v-516h-159z" />
<glyph unicode="#" d="M45 469v119h238l47 340h-221v119h237l66 469h131l-66 -469h264l66 469h131l-66 -469h222v-119h-238l-47 -340h221v-119h-237l-66 -469h-131l66 469h-265l-65 -469h-131l65 469h-221zM414 588h264l47 340h-264z" />
<glyph unicode="$" d="M82 422h172q4 -54 19 -101.5t44.5 -91t80 -73t118.5 -37.5v586q-95 28 -154 52t-116 64q-135 100 -135 297q0 169 106 287q108 120 299 135v154h107v-154q57 -3 108.5 -16.5t105 -44.5t94 -77.5t68.5 -120t35 -167.5h-172q-2 35 -6 63t-19 67.5t-39 67.5t-69 52.5 t-106 32.5v-541q222 -57 328 -156.5t106 -267.5q0 -189 -112 -311.5t-322 -145.5v-237h-107v237q-205 12 -312.5 128.5t-121.5 318.5zM283 1141q2 -48 14.5 -85.5t31.5 -62.5t51 -45.5t61.5 -33t74.5 -27.5v510q-103 -6 -168 -79t-65 -177zM623 119q127 10 194.5 82.5 t67.5 197.5q0 214 -262 277v-557z" />
<glyph unicode="%" horiz-adv-x="2048" d="M233 1161q0 93 29 167.5t77 119.5t105.5 68.5t118.5 23.5q62 0 120 -23.5t105.5 -68.5t76 -119.5t28.5 -167.5t-28.5 -167.5t-76 -119.5t-105.5 -68.5t-120 -23.5q-61 0 -118.5 23.5t-105.5 68.5t-77 119.5t-29 167.5zM393 1161q0 -121 42.5 -190.5t127.5 -69.5 t127.5 69.5t42.5 190.5t-42.5 190.5t-127.5 69.5t-127.5 -69.5t-42.5 -190.5zM485 -70l949 1655h129l-949 -1655h-129zM1155 354q0 93 29 167.5t77 119.5t105.5 68.5t118.5 23.5q62 0 120 -23.5t105.5 -68.5t76 -119.5t28.5 -167.5t-28.5 -167.5t-76 -119.5t-105.5 -68.5 t-120 -23.5q-61 0 -118.5 23.5t-105.5 68.5t-77 119.5t-29 167.5zM1315 354q0 -121 42.5 -190.5t127.5 -69.5t127.5 69.5t42.5 190.5t-42.5 190.5t-127.5 69.5t-127.5 -69.5t-42.5 -190.5z" />
<glyph unicode="&#x26;" horiz-adv-x="1478" d="M174 403q0 183 119 302q49 49 95 78.5t128 72.5l29 14q-80 117 -109 177q-33 67 -33 155q0 51 19 101.5t56 94t99 70.5t140 27q142 0 221.5 -79.5t79.5 -205.5q0 -98 -39.5 -170t-126.5 -139l-94 -72l297 -413q30 55 53 128t31 132h159q-14 -100 -54 -205t-93 -172 l215 -299h-203l-116 166q-72 -87 -184 -141t-247 -54q-200 0 -321 121q-121 124 -121 311zM346 406q0 -115 76 -203t215 -88q101 0 186 41t142 112l-344 488q-142 -77 -208.5 -157.5t-66.5 -192.5zM563 1190q0 -52 25 -101t94 -143v-2q176 116 176 252q0 78 -38.5 123 t-104.5 45t-109 -45t-43 -129z" />
<glyph unicode="'" horiz-adv-x="569" d="M205 1024v516h160v-516h-160z" />
<glyph unicode="(" horiz-adv-x="684" d="M143 604q0 348 140 631q96 194 254 381l122 -105q-50 -54 -97 -118t-95.5 -152.5t-83.5 -183.5t-57.5 -213.5t-22.5 -239.5t22.5 -239.5t57.5 -213.5t83.5 -183.5t95.5 -152.5t97 -118l-122 -105q-157 185 -254 381q-140 283 -140 631z" />
<glyph unicode=")" horiz-adv-x="684" d="M25 -303q50 54 97 118t95.5 152.5t83.5 183.5t57.5 213.5t22.5 239.5t-22.5 239.5t-57.5 213.5t-83.5 183.5t-95.5 152.5t-97 118l122 105q157 -185 254 -381q140 -283 140 -631t-140 -631q-90 -188 -254 -381z" />
<glyph unicode="*" d="M201 1239l32 102l283 -102v301h107v-301l278 102l37 -102l-291 -96l189 -244l-91 -65l-176 251l-176 -251l-90 65l189 244z" />
<glyph unicode="+" horiz-adv-x="1228" d="M96 459v119h459v458h119v-458h459v-119h-459v-459h-119v459h-459z" />
<glyph unicode="," horiz-adv-x="569" d="M29 -287l202 529l162 -78l-258 -496z" />
<glyph unicode="-" horiz-adv-x="684" d="M90 459v155h504v-155h-504z" />
<glyph unicode="." horiz-adv-x="569" d="M170 90q0 47 34 81t81 34t80.5 -34t33.5 -81t-33.5 -81t-80.5 -34t-81 34t-34 81z" />
<glyph unicode="/" horiz-adv-x="796" d="M33 -29l600 1598h131l-600 -1598h-131z" />
<glyph unicode="0" d="M76 758q0 105 10 197t31.5 182.5t59.5 161.5t91 126.5t129.5 85t171.5 29.5q81 0 149.5 -22.5t118.5 -62.5t89.5 -97.5t65 -124t41.5 -146.5t23 -160t7 -169q0 -105 -9.5 -197t-31 -182.5t-60 -162t-91.5 -126.5t-130 -85t-172 -30q-113 0 -200.5 44t-141.5 116 t-89 175.5t-48.5 212t-13.5 235.5zM248 758q0 -322 84 -480.5t237 -158.5q154 0 238 158.5t84 480.5t-84 480.5t-238 158.5q-153 0 -237 -158.5t-84 -480.5z" />
<glyph unicode="1" d="M266 1108v158q95 34 217 122.5t174 151.5h82v-1540h-172v1278q-128 -99 -301 -170z" />
<glyph unicode="2" d="M98 0v145l496 547q129 142 191.5 242.5t62.5 187.5q0 117 -77 189.5t-206 72.5q-137 0 -210 -87.5t-81 -241.5h-159q2 104 28 187t68.5 138t100.5 91.5t121.5 52.5t133.5 16q212 0 332 -117q121 -115 121 -295q0 -120 -58.5 -231.5t-193.5 -255.5l-451 -485h705v-156 h-924z" />
<glyph unicode="3" d="M80 379l160 12q18 -140 86 -206t211 -66q146 0 234.5 95t88.5 245t-92.5 241t-235.5 91q-111 0 -202 -68l-13 8v146l467 483h-639v156h832v-156l-430 -440l4 -5q40 7 70 7q170 0 290 -117q121 -115 121 -324q0 -101 -32.5 -191.5t-93 -161t-155.5 -112t-212 -41.5 q-133 0 -226.5 41t-144.5 109q-41 58 -58.5 114t-29.5 140z" />
<glyph unicode="4" d="M72 416v137l665 987h154v-981h176v-143h-176v-416h-160v416h-659zM242 559h489v739h-4z" />
<glyph unicode="5" d="M98 381l172 14q6 -124 82.5 -200t198.5 -76q140 0 228.5 97.5t88.5 270.5q0 155 -87 252t-224 97q-194 0 -274 -156h-162l37 836h813v-156h-672l-25 -500h5q94 131 307 131q68 0 131.5 -17t123 -55t103 -95t70 -143t26.5 -192q0 -90 -29.5 -178.5t-86 -164.5 t-150.5 -123.5t-211 -47.5q-208 0 -328 100t-137 306z" />
<glyph unicode="6" d="M80 725q0 390 136.5 602.5t383.5 212.5q123 0 209.5 -42.5t132.5 -113.5q69 -98 82 -217l-168 -12q-52 242 -250 242q-79 0 -139 -35t-98 -92.5t-63 -144t-37 -175.5t-17 -202l4 -5q46 93 134.5 152t211.5 59q214 0 334 -135q123 -132 123 -348q0 -98 -34 -188 t-94.5 -158.5t-152.5 -109t-200 -40.5q-116 0 -203.5 37.5t-143 102.5t-90 162t-48 205t-13.5 243zM272 467q0 -157 81 -252.5t220 -95.5q151 0 232 100q82 101 82 246q0 156 -82.5 245t-233.5 89q-127 0 -213 -92t-86 -240z" />
<glyph unicode="7" d="M102 1360v156h922v-170q-207 -313 -358 -676.5t-191 -669.5h-188q14 138 98 386.5t216.5 524t262.5 449.5h-762z" />
<glyph unicode="8" d="M88 418q0 163 75.5 266t219.5 145v5q-109 30 -168 113t-59 200q0 165 117 279t296 114t296.5 -114t117.5 -279q0 -117 -59 -200t-168 -113v-5q144 -42 219.5 -145t75.5 -266q0 -90 -33.5 -170.5t-94.5 -141t-153 -96t-201 -35.5t-200.5 35.5t-152.5 96t-94.5 141 t-33.5 170.5zM260 438q0 -149 83 -234t226 -85t226.5 85t83.5 234q0 135 -85.5 222.5t-224.5 87.5t-224 -87.5t-85 -222.5zM328 1145q0 -112 66 -183t175 -71t175.5 71t66.5 183q0 110 -68 181t-174 71t-173.5 -71t-67.5 -181z" />
<glyph unicode="9" d="M80 1044q0 98 34 188t94.5 158.5t152.5 109t200 40.5q97 0 174 -25.5t131 -74.5t92 -114t60 -151.5t31.5 -179t9.5 -204.5q0 -390 -136.5 -603t-383.5 -213q-122 0 -209 42.5t-135 111.5q-67 104 -80 219l168 12q26 -119 86 -180t163 -61q79 0 139.5 35t99.5 93t64.5 143 t37 176t14.5 202l-4 4q-46 -93 -134.5 -152t-211.5 -59q-210 0 -334 133q-123 135 -123 350zM252 1051q0 -156 82 -245t233 -89q127 0 213 92t86 240q0 157 -81 252.5t-220 95.5q-146 0 -229.5 -97t-83.5 -249z" />
<glyph unicode=":" horiz-adv-x="569" d="M170 90q0 47 34 81t81 34t80.5 -34t33.5 -81t-33.5 -81t-80.5 -34t-81 34t-34 81zM170 877q0 47 34 80.5t81 33.5t80.5 -33.5t33.5 -80.5t-33.5 -81t-80.5 -34t-81 34t-34 81z" />
<glyph unicode=";" horiz-adv-x="569" d="M29 -287l202 529l162 -78l-258 -496zM170 877q0 47 34 80.5t81 33.5t80.5 -33.5t33.5 -80.5t-33.5 -81t-80.5 -34t-81 34t-34 81z" />
<glyph unicode="&#x3c;" horiz-adv-x="1228" d="M96 459v119l1037 475v-127l-891 -408l891 -407v-127z" />
<glyph unicode="=" horiz-adv-x="1228" d="M96 256v119h1037v-119h-1037zM96 662v118h1037v-118h-1037z" />
<glyph unicode="&#x3e;" horiz-adv-x="1228" d="M96 -16v127l891 407l-891 408v127l1037 -475v-119z" />
<glyph unicode="?" d="M164 1139q0 61 10 117t38.5 114.5t72.5 101t118 70t170 27.5q173 0 287 -99q115 -100 115 -286q0 -130 -60 -215q-61 -86 -192 -191q-148 -116 -148 -295v-133h-159v105q0 141 37 231q39 97 149 180q106 82 156 154q45 65 45 172q0 104 -63.5 168.5t-170.5 64.5 q-121 0 -183 -75t-62 -211h-160zM381 90q0 47 34 81t81 34t80.5 -34t33.5 -81t-33.5 -81t-80.5 -34t-81 34t-34 81z" />
<glyph unicode="@" horiz-adv-x="1638" d="M20 770q0 130 41 252.5t115.5 220.5t172.5 172t218.5 114t247.5 40q230 0 414.5 -93t286.5 -252t102 -352q0 -118 -46.5 -227.5t-120.5 -186t-169 -122t-190 -45.5q-77 0 -124 37t-53 108h-4q-58 -66 -129 -105.5t-143 -39.5q-140 0 -219 94q-80 95 -80 233 q0 151 64.5 292t184.5 234t265 93q168 0 236 -178h4l41 139h133l-199 -616l-2 -9q-33 -90 -33 -127q0 -22 22.5 -29t76.5 -7q64 0 127.5 30t117.5 86t87.5 148.5t33.5 204.5q0 181 -88.5 314t-241.5 201t-350 68q-192 0 -349 -95t-244 -255.5t-87 -351.5q0 -193 89.5 -349 t246.5 -244.5t350 -88.5q182 0 337 74.5t249 205.5h131q-97 -178 -295 -284q-195 -103 -436 -103q-124 0 -241 34t-216.5 102t-174 162.5t-117 223.5t-42.5 277zM471 633q0 -107 53.5 -165t147.5 -58q93 0 176 78t129.5 192t46.5 225q0 105 -48.5 159t-127.5 54 q-81 0 -153.5 -47.5t-120 -120.5t-75.5 -157t-28 -160z" />
<glyph unicode="A" horiz-adv-x="1368" d="M16 0l580 1540h176l580 -1540h-195l-153 434h-639l-154 -434h-195zM422 590h524l-260 733h-4z" />
<glyph unicode="B" horiz-adv-x="1251" d="M174 0v1540h496q193 0 305 -106q112 -103 112 -254q0 -72 -11.5 -129.5t-38 -110t-77 -88t-122.5 -49.5v-4q140 -11 223.5 -107t83.5 -268q0 -176 -131 -300t-330 -124h-510zM346 156h322q139 0 222 79.5t83 200.5q0 51 -19.5 98t-59 88.5t-108 66t-157.5 24.5h-283v-557 zM346 856h256q143 0 222 74t79 207q0 138 -73.5 199t-221.5 61h-262v-541z" />
<glyph unicode="C" horiz-adv-x="1705" d="M129 770v11q0 161 59 306q61 150 166 256q104 106 250 167q141 59 297 59h10q115 0 212 -22t166.5 -61t123.5 -88t90 -109t57.5 -117t34.5 -119l-174 -13q-106 373 -510 373q-121 0 -221.5 -36t-169 -97.5t-116 -144t-69.5 -174.5t-22 -191t20 -189.5t65.5 -174.5 t113 -145t170 -97.5t229.5 -36.5q207 0 338 110t183 316l174 -21q-22 -89 -56.5 -166t-93 -151.5t-135 -127t-186.5 -84.5t-242 -32q-222 0 -395 97t-271 279.5t-98 422.5z" />
<glyph unicode="D" horiz-adv-x="1593" d="M190 0v1540h478q173 0 311 -43t227.5 -115t148.5 -171.5t84 -206.5t25 -226t-29.5 -231.5t-90 -212t-146 -174t-205.5 -117.5t-260 -43h-543zM362 156h338q140 0 253 52t183 140t107 198.5t37 233.5q0 98 -21 185.5t-68.5 165t-118.5 133t-177 88t-238 32.5h-295v-1228z " />
<glyph unicode="E" d="M174 0v1540h868v-156h-696v-516h676v-155h-676v-557h696v-156h-868z" />
<glyph unicode="F" d="M174 0v1540h868v-156h-696v-516h676v-155h-676v-713h-172z" />
<glyph unicode="G" horiz-adv-x="1705" d="M129 770q0 157 50.5 299.5t144 254.5t241.5 178.5t330 66.5q129 0 244 -39t196 -105t133.5 -151t67.5 -178l-170 -17q-17 53 -41.5 98t-66 90t-94.5 76t-129.5 50.5t-168.5 19.5q-174 0 -300.5 -86t-189.5 -232t-63 -333q0 -286 153.5 -460.5t393.5 -174.5 q109 0 198.5 33t147.5 86.5t99.5 126t61.5 146t26 153.5h-521v155h705q-2 -139 -28 -263t-82 -233.5t-138 -188.5t-202.5 -125t-268.5 -46q-227 0 -393 101t-251 280.5t-85 417.5z" />
<glyph unicode="H" horiz-adv-x="1478" d="M174 0v1540h172v-672h787v672h172v-1540h-172v713h-787v-713h-172z" />
<glyph unicode="I" horiz-adv-x="569" d="M199 0v1540h172v-1540h-172z" />
<glyph unicode="J" horiz-adv-x="909" d="M33 -10v153q56 -16 188 -16q180 0 261 92.5t81 280.5v884h-520v156h692v-1077q0 -88 -17 -161t-55.5 -135t-97.5 -105t-145 -67t-195 -24q-118 0 -192 19z" />
<glyph unicode="K" horiz-adv-x="1251" d="M174 0v1540h172v-727h4l643 727h232l-684 -737l694 -803h-238l-647 780h-4v-780h-172z" />
<glyph unicode="L" d="M174 0v1540h172v-1384h721v-156h-893z" />
<glyph unicode="M" horiz-adv-x="1933" d="M182 0v1540h203l582 -1298l581 1298h203v-1540h-172v1229h-4l-553 -1229h-111l-553 1219h-4v-1219h-172z" />
<glyph unicode="N" horiz-adv-x="1593" d="M182 0v1540h187l866 -1270h4v1270h172v-1540h-186l-867 1270h-4v-1270h-172z" />
<glyph unicode="O" horiz-adv-x="1822" d="M129 770v11q0 161 59 306q61 150 166 256q104 106 250 167q141 59 297 59h10q226 0 403.5 -97t278.5 -279.5t101 -422.5v-11q0 -161 -59 -306q-61 -150 -167 -256q-104 -106 -250 -167q-141 -59 -297 -59h-10q-169 0 -313 56.5t-248 159t-162.5 253t-58.5 330.5zM313 770 q0 -84 21.5 -171t69.5 -172t116 -151.5t169.5 -107.5t221.5 -41t222 41t170 107.5t115.5 151.5t69 172t21.5 171q0 99 -21.5 190.5t-69 174.5t-116 144.5t-169 97.5t-222.5 36q-121 0 -221.5 -36t-169 -97.5t-116 -144t-69.5 -174.5t-22 -191z" />
<glyph unicode="P" horiz-adv-x="1251" d="M174 0v1540h490q237 0 370 -126t133 -349q0 -221 -145 -348q-144 -123 -383 -123h-293v-594h-172zM346 750h266q78 0 143.5 18t117 55t81 99.5t29.5 144.5q0 158 -94 237.5t-262 79.5h-281v-634z" />
<glyph unicode="Q" horiz-adv-x="1822" d="M129 770v11q0 161 59 306q61 150 166 256t250 167q141 59 297 59h10q226 0 403.5 -97t278.5 -279.5t101 -422.5q0 -154 -50 -293t-141 -244l201 -200l-102 -103l-205 205q-206 -164 -486 -164q-169 0 -313 56.5t-248 159t-162.5 253t-58.5 330.5zM313 770 q0 -84 21.5 -171t69.5 -172t116 -151.5t169.5 -107.5t221.5 -41q221 0 367 127l-166 166l102 102l162 -162q65 89 99 197.5t34 212.5q0 99 -21.5 190.5t-69 174.5t-116 144.5t-169 97.5t-222.5 36q-121 0 -221.5 -36t-169 -97.5t-116 -144t-69.5 -174.5t-22 -191z" />
<glyph unicode="R" horiz-adv-x="1251" d="M174 0v1540h477q117 0 208.5 -23.5t150.5 -62.5t97.5 -94t54.5 -114t16 -126q0 -78 -19.5 -145.5t-52.5 -115.5t-79 -85.5t-95 -61t-105 -36.5l410 -676h-211l-379 659h-301v-659h-172zM346 815h307q157 0 248.5 74t91.5 207q0 64 -19 114.5t-51 82.5t-77.5 53t-95 29.5 t-107.5 8.5h-297v-569z" />
<glyph unicode="S" horiz-adv-x="1366" d="M123 426h174q47 -299 391 -299q93 0 166 25.5t116.5 68t66 93t22.5 104.5q0 121 -78 178q-72 52 -289 100q-277 58 -403 152q-123 91 -123 278q0 191 144.5 317t373.5 126q134 0 232.5 -33.5t157.5 -95t91 -135t45 -166.5h-176q-4 53 -25 99.5t-61 87t-107.5 64 t-154.5 23.5q-166 0 -257 -80t-91 -207q0 -93 78 -155t266 -99q307 -59 432 -153q129 -91 129 -285q0 -73 -20.5 -140t-65.5 -126.5t-109.5 -103t-159 -68.5t-208.5 -25q-256 0 -400.5 119t-156.5 336z" />
<glyph unicode="T" d="M16 1384v156h1106v-156h-467v-1384h-172v1384h-467z" />
<glyph unicode="U" horiz-adv-x="1478" d="M174 510v1030h172v-1003q0 -201 103.5 -305.5t289.5 -104.5q179 0 286.5 114t107.5 330v969h172v-971q0 -291 -166 -450q-151 -148 -400 -148q-271 0 -418 144.5t-147 394.5z" />
<glyph unicode="V" horiz-adv-x="1253" d="M20 1540h195l414 -1300h4l414 1300h186l-522 -1540h-160z" />
<glyph unicode="W" horiz-adv-x="1933" d="M31 1540h182l303 -1274h4l367 1274h160l366 -1284h4l303 1284h183l-408 -1540h-156l-370 1286h-4l-371 -1286h-156z" />
<glyph unicode="X" horiz-adv-x="1253" d="M20 0l504 782l-485 758h219l377 -633l377 633h211l-488 -758l498 -782h-223l-387 651l-392 -651h-211z" />
<glyph unicode="Y" horiz-adv-x="1253" d="M14 1540h211l406 -758l397 758h211l-522 -911v-629h-172v629z" />
<glyph unicode="Z" horiz-adv-x="1251" d="M43 0v143l946 1241h-872v156h1091v-143l-946 -1241h924v-156h-1143z" />
<glyph unicode="[" horiz-adv-x="684" d="M213 -393v1995h389v-132h-229v-1732h229v-131h-389z" />
<glyph unicode="\" horiz-adv-x="796" d="M33 1569h131l600 -1598h-131z" />
<glyph unicode="]" horiz-adv-x="684" d="M82 -262h229v1732h-229v132h389v-1995h-389v131z" />
<glyph unicode="^" horiz-adv-x="1228" d="M96 608l459 908h119l459 -908h-132l-387 770l-387 -770h-131z" />
<glyph unicode="_" horiz-adv-x="1024" d="M0 -154h1024v-102h-1024v102z" />
<glyph unicode="`" horiz-adv-x="454" d="M18 1516h222l180 -291h-135z" />
<glyph unicode="a" d="M98 276q0 150 91 227t292 87h17q237 14 319 16v78q0 116 -61.5 177t-198.5 61q-128 0 -190 -48.5t-80 -146.5h-158q48 326 430 326q203 0 310.5 -89t107.5 -255v-508q0 -71 14 -201h-174v135h-4q-47 -83 -139.5 -123.5t-204.5 -40.5q-169 0 -270 86.5t-101 218.5z M270 285q0 -79 65 -131t169 -52q76 0 145.5 26.5t118.5 87t49 142.5v127l-270 -12q-141 -6 -209 -50t-68 -138z" />
<glyph unicode="b" horiz-adv-x="1251" d="M154 0v1540h159v-694h4q29 44 53.5 71t63.5 54q96 69 246 69q68 0 134 -19t128 -61.5t108.5 -103t74.5 -149.5t28 -195q0 -237 -140.5 -389t-353.5 -152q-72 0 -130 18.5t-98.5 52.5t-65 64.5t-48.5 71.5h-4v-178h-159zM313 504q0 -163 93 -279q91 -110 249 -110 q159 0 240 112q86 115 86 281q0 186 -92 287.5t-240 101.5q-138 0 -237 -102t-99 -291z" />
<glyph unicode="c" d="M98 508q0 163 73.5 289t192 191t257.5 65q182 0 301.5 -91t148.5 -264l-164 -16q-12 35 -23.5 60.5t-34.5 59t-50.5 54.5t-71.5 36.5t-98 16.5q-157 0 -258 -110t-101 -293q0 -166 88 -279q87 -112 263 -112q216 0 286 237l170 -20q-115 -361 -459 -361 q-122 0 -221.5 43.5t-164 118t-99.5 171t-35 204.5z" />
<glyph unicode="d" horiz-adv-x="1251" d="M98 512q0 106 28 195t74.5 149.5t108.5 103t128 61.5t134 19q78 -1 140.5 -19t105.5 -50t68.5 -60t48.5 -65h4v694h160v-1540h-160v178h-4q-53 -89 -115 -137q-87 -70 -227 -70q-213 0 -353.5 152t-140.5 389zM270 508q0 -165 84 -281q84 -112 242 -112q159 0 250 110 q92 115 92 279q0 190 -98 291q-99 102 -238 102q-147 0 -239.5 -101.5t-92.5 -287.5z" />
<glyph unicode="e" d="M98 473q0 258 131 420q136 160 359 160q226 0 357.5 -140t131.5 -393v-45h-807q0 -166 89.5 -263t228.5 -97q123 0 205 67q65 53 94 131l164 -24q-144 -318 -471 -318q-210 0 -346 144t-136 358zM274 606h631q-17 144 -98 223.5t-215 79.5q-74 0 -134.5 -26.5t-98.5 -71 t-59.5 -97t-25.5 -108.5z" />
<glyph unicode="f" horiz-adv-x="684" d="M63 893v131h191v293q0 111 68 167t178 56q91 0 121 -6v-156q-27 6 -97 6q-58 0 -84 -25.5t-26 -76.5v-258h207v-131h-207v-893h-160v893h-191z" />
<glyph unicode="g" horiz-adv-x="1251" d="M98 524q0 115 39 215t105.5 168t156 107t189.5 39q104 0 195 -53t151 -150h4v174h160v-926q0 -528 -531 -528q-190 0 -306 89t-128 247l172 8q31 -201 266 -201q106 0 179.5 32t113.5 92.5t57 133.5t17 170v84h-4q-52 -113 -148 -169t-217 -56q-220 0 -346 147 q-125 149 -125 377zM270 539q0 -188 82 -292t244 -104q64 0 124 25.5t109 73t79 125.5t30 174q0 153 -88 260q-86 108 -248 108q-150 0 -241 -97.5t-91 -272.5z" />
<glyph unicode="h" d="M154 0v1540h159v-690h4q102 190 326 190q44 0 87.5 -9.5t90.5 -34.5t82.5 -63t58.5 -101.5t23 -143.5v-688h-160v618q0 142 -60.5 210.5t-164.5 68.5q-122 0 -204.5 -89t-82.5 -239v-569h-159z" />
<glyph unicode="i" horiz-adv-x="454" d="M106 1419q0 51 35 86t86 35t86 -35t35 -86t-35 -86t-86 -35t-86 35t-35 86zM147 0v1024h160v-1024h-160z" />
<glyph unicode="j" horiz-adv-x="454" d="M-51 -287h51q81 0 114 34.5t33 129.5v1147h160v-1157q0 -158 -69 -227.5t-238 -69.5h-51v143zM106 1419q0 51 35 86t86 35t86 -35t35 -86t-35 -86t-86 -35t-86 35t-35 86z" />
<glyph unicode="k" horiz-adv-x="1024" d="M154 0v1540h159v-969l459 453h219l-495 -467l503 -557h-223l-463 539v-539h-159z" />
<glyph unicode="l" horiz-adv-x="454" d="M147 0v1540h160v-1540h-160z" />
<glyph unicode="m" horiz-adv-x="1708" d="M154 0v1024h157v-164h4q56 90 125 135t183 45q210 0 282 -200q54 103 125 151.5t189 48.5q165 0 250 -87t85 -253v-700h-159v657q0 128 -51.5 184t-169.5 56q-100 0 -170 -79t-70 -200v-618h-160v657q0 128 -50 184t-165 56q-104 0 -175 -78.5t-71 -200.5v-618h-159z" />
<glyph unicode="n" d="M154 0v1024h159v-174h4q102 190 326 190q44 0 87.5 -9.5t90.5 -34.5t82.5 -63t58.5 -101.5t23 -143.5v-688h-160v618q0 142 -60.5 210.5t-164.5 68.5q-122 0 -204.5 -89t-82.5 -239v-569h-159z" />
<glyph unicode="o" horiz-adv-x="1253" d="M98 512q0 105 36 201.5t101.5 172.5t167 121.5t224.5 45.5q106 0 194 -29.5t149 -80t103 -119.5t62 -147.5t20 -164.5q0 -105 -35.5 -201.5t-101 -172.5t-167 -121.5t-224.5 -45.5q-131 0 -234.5 44.5t-166.5 121t-95.5 172t-32.5 203.5zM270 512q0 -178 97 -287.5 t260 -109.5t259.5 109.5t96.5 287.5t-96.5 287.5t-259.5 109.5t-260 -109.5t-97 -287.5z" />
<glyph unicode="p" horiz-adv-x="1251" d="M154 -430v1454h159v-178h4q29 44 53.5 71t63.5 54q96 69 246 69q68 0 134 -19t128 -61.5t108.5 -103t74.5 -149.5t28 -195q0 -237 -140.5 -389t-353.5 -152q-119 0 -207 54t-135 141h-4v-596h-159zM313 504q0 -163 93 -279q91 -110 249 -110q159 0 240 112q86 115 86 281 q0 186 -92 287.5t-240 101.5q-138 0 -237 -102t-99 -291z" />
<glyph unicode="q" horiz-adv-x="1251" d="M98 512q0 106 28 195t74.5 149.5t108.5 103t128 61.5t134 19q78 -1 140.5 -19t105.5 -50t68.5 -60t48.5 -65h4v178h160v-1454h-160v596h-4q-47 -87 -135 -141t-207 -54q-213 0 -353.5 152t-140.5 389zM270 508q0 -165 84 -281q84 -112 242 -112q159 0 250 110 q92 115 92 279q0 190 -98 291q-99 102 -238 102q-147 0 -239.5 -101.5t-92.5 -287.5z" />
<glyph unicode="r" horiz-adv-x="684" d="M154 0v1024h155v-225h4q89 241 295 241h58v-168h-52q-301 0 -301 -385v-487h-159z" />
<glyph unicode="s" horiz-adv-x="1024" d="M78 301h160q7 -82 73 -134t197 -52q126 0 202 42.5t76 116.5q0 44 -24.5 70t-89.5 47t-195 43q-87 15 -150.5 36t-115.5 54.5t-78.5 86t-26.5 122.5q0 147 115 233.5t305 86.5q173 0 285 -92q113 -91 113 -242h-160q-6 86 -69.5 138t-182.5 52q-111 0 -178.5 -43 t-67.5 -116q0 -72 61 -111t208 -64q221 -36 316 -100.5t95 -191.5q0 -61 -25 -115t-75 -99t-136 -71.5t-198 -26.5q-115 0 -198.5 26t-131.5 74t-72 103.5t-32 126.5z" />
<glyph unicode="t" horiz-adv-x="684" d="M63 893v131h191v299h160v-299h207v-131h-207v-629q0 -70 22.5 -101.5t75.5 -31.5q60 0 106 6v-143q-86 -6 -161 -6q-111 0 -157 56.5t-46 201.5v647h-191z" />
<glyph unicode="u" d="M154 350v674h159v-631q0 -141 61 -209.5t165 -68.5q122 0 204 88.5t82 238.5v582h160v-1024h-160v162h-4q-102 -191 -325 -191q-51 0 -97.5 11t-92 38t-78.5 69t-53.5 109t-20.5 152z" />
<glyph unicode="v" horiz-adv-x="1024" d="M16 1024h181l313 -795h4l322 795h172l-426 -1024h-146z" />
<glyph unicode="w" horiz-adv-x="1593" d="M33 1024h176l254 -782h4l254 782h151l261 -782h4l254 782h170l-353 -1024h-157l-252 782h-4l-250 -782h-156z" />
<glyph unicode="x" horiz-adv-x="1024" d="M16 0l394 528l-369 496h213l270 -410l271 410h200l-377 -496l390 -528h-209l-283 422l-301 -422h-199z" />
<glyph unicode="y" horiz-adv-x="1024" d="M16 1024h183l313 -848h4l315 848h177l-598 -1454h-174l196 450z" />
<glyph unicode="z" horiz-adv-x="909" d="M57 0v139l596 742h-575v143h774v-139l-596 -742h596v-143h-795z" />
<glyph unicode="{" horiz-adv-x="684" d="M143 545v119q74 0 109 63.5t35 206.5v455q0 102 58 157.5t173 55.5h84v-119h-43q-60 0 -86.5 -29t-26.5 -90v-442q0 -249 -155 -316v-4q155 -67 155 -315v-443q0 -61 26.5 -89.5t86.5 -28.5h43v-119h-84q-115 0 -173 55.5t-58 157.5v454q0 144 -35.5 207.5t-108.5 63.5z " />
<glyph unicode="|" horiz-adv-x="454" d="M168 -29v1598h119v-1598h-119z" />
<glyph unicode="}" horiz-adv-x="684" d="M82 -274h43q60 0 86.5 28.5t26.5 89.5v443q0 248 155 315v4q-155 67 -155 316v442q0 61 -26.5 90t-86.5 29h-43v119h84q115 0 173 -55.5t58 -157.5v-455q0 -143 35 -206.5t109 -63.5v-119q-73 0 -108.5 -63.5t-35.5 -207.5v-454q0 -102 -58 -157.5t-173 -55.5h-84v119z " />
<glyph unicode="~" horiz-adv-x="1228" d="M141 469q93 176 256 176q51 0 97.5 -13t126.5 -48l12 -6l35 -15q124 -53 166 -53q52 0 92 34t88 109l73 -86q-93 -176 -256 -176q-52 0 -98.5 13.5t-124.5 50.5l-12 4l-35 14q-124 53 -166 53q-52 0 -92 -34t-88 -109z" />
<glyph unicode="&#xa1;" horiz-adv-x="684" d="M227 1020q0 47 34 81t81 34t81 -34t34 -81t-34 -81t-81 -34t-81 34t-34 81zM262 -430v1190h160v-1190h-160z" />
<glyph unicode="&#xa2;" d="M80 508q0 114 36 211.5t98.5 165t145 110t175.5 52.5v141h94v-135q170 -8 282.5 -99.5t141.5 -255.5l-164 -16q-11 32 -21.5 57t-32.5 57.5t-48 54.5t-67 38.5t-91 19.5v-790q194 11 260 233l170 -20q-21 -71 -55 -130.5t-85 -110.5t-125.5 -81.5t-164.5 -34.5v-227h-94 v227q-213 21 -336 175q-119 149 -119 358zM252 506q0 -152 73.5 -257t209.5 -128v780q-127 -25 -205 -131.5t-78 -263.5z" />
<glyph unicode="&#xa3;" d="M72 113q126 55 196 172q74 118 74 227q0 117 -39 205h-225v106h172q-96 141 -96 305q0 175 126 293.5t312 118.5q97 0 174 -23t125 -60.5t80.5 -90.5t47 -106.5t17.5 -114.5l-172 -12q-7 128 -75.5 196t-186.5 68q-121 0 -192.5 -73t-71.5 -198q0 -60 21.5 -126.5 t76.5 -176.5h432v-106h-391q25 -92 25 -162q0 -112 -51.5 -202.5t-155.5 -184.5l4 -4l6 2q69 29 168 29q60 0 186 -33l17 -4q95 -27 149 -27q51 0 105 18.5t86 47.5l51 -154q-111 -68 -254 -68q-67 0 -199 35q-50 17 -120.5 29t-114.5 12q-72 0 -138.5 -23t-103.5 -57z" />
<glyph unicode="&#xa4;" d="M57 330l115 114q-111 130 -111 314t111 313l-115 115l84 84l115 -115q138 111 313 111q185 0 314 -111l114 115l84 -84l-114 -115q110 -137 110 -313q0 -180 -110 -314l114 -114l-84 -84l-114 114q-137 -110 -314 -110q-176 0 -313 110l-115 -114zM193 758 q0 -160 112 -274.5t264 -114.5q154 0 265.5 114t111.5 275t-111.5 275t-265.5 114q-152 0 -264 -114.5t-112 -274.5z" />
<glyph unicode="&#xa5;" d="M14 1516h205l350 -746l351 746h204l-407 -775h233v-118h-295l-6 -11v-155h301v-119h-301v-338h-160v338h-301v119h301v155l-6 11h-295v118h234z" />
<glyph unicode="&#xa6;" horiz-adv-x="454" d="M168 -29v598h119v-598h-119zM168 971v598h119v-598h-119z" />
<glyph unicode="&#xa7;" d="M125 555q0 124 68.5 213.5t187.5 120.5v4q-103 30 -157 112t-54 205q0 149 111 254q114 105 297 105q177 0 283 -95.5t112 -259.5h-172q-10 111 -66 161t-162 50q-60 0 -106.5 -20.5t-72.5 -53.5t-39 -69t-13 -72q2 -52 18.5 -90.5t38 -63t65 -46t79 -33t100.5 -29.5 q106 -30 158.5 -50.5t99.5 -55.5q113 -85 113 -264q0 -125 -79.5 -225.5t-178.5 -112.5v-4q110 -30 168.5 -111.5t58.5 -190.5q0 -175 -115 -284t-301 -109q-383 0 -411 359h172q1 -101 65.5 -158t159.5 -57q122 0 190 60.5t68 162.5q0 122 -88 178q-64 41 -213 78 q-78 21 -112.5 31t-77 29.5t-76.5 45.5q-119 91 -119 285zM297 563q0 -105 71 -173t201 -68q123 0 198 68.5t75 178.5q0 104 -76 169t-205 65q-124 0 -194 -67t-70 -173z" />
<glyph unicode="&#xa8;" horiz-adv-x="454" d="M-98 1352q0 47 33.5 80.5t80.5 33.5t81 -33.5t34 -80.5t-34 -81t-81 -34t-80.5 34t-33.5 81zM324 1352q0 47 33.5 80.5t80.5 33.5t81 -33.5t34 -80.5t-34 -81t-81 -34t-80.5 34t-33.5 81z" />
<glyph unicode="&#xa9;" horiz-adv-x="1638" d="M20 770q-1 160 63 308.5t172 256.5t256 172t308 62q160 2 308.5 -62t256.5 -172t172 -256.5t62 -308.5q2 -160 -62 -308t-172 -256t-256.5 -172t-308.5 -63q-161 0 -309 63.5t-255.5 171t-171 255.5t-63.5 309zM139 770q0 -193 89.5 -352t245.5 -249.5t345 -90.5t345 90 t245.5 249t89.5 353q0 146 -52.5 275t-143.5 220.5t-216.5 144t-267.5 52.5t-267.5 -52.5t-216.5 -144t-143.5 -220.5t-52.5 -275zM362 774q0 222 127 361q130 139 351 139q163 0 274 -89t131 -245h-125q-21 100 -96 163.5t-182 63.5q-171 0 -266 -105.5t-95 -285.5 q0 -185 95 -291t270 -106q107 0 181.5 65.5t92.5 167.5h125q-32 -154 -141 -247t-258 -93q-216 0 -350 143t-134 359z" />
<glyph unicode="&#xaa;" horiz-adv-x="739" d="M74 1090q0 181 248 190l213 8v53q0 67 -40 106.5t-124 39.5q-83 0 -124 -29.5t-52 -87.5h-119q33 199 297 199q280 0 280 -211v-316q0 -42 13 -122h-125v81h-4q-56 -98 -232 -98q-96 0 -163.5 52t-67.5 135zM193 1102q0 -55 41 -86t108 -31q79 0 136 42.5t57 113.5v78 l-201 -9q-62 -2 -101.5 -29t-39.5 -79z" />
<glyph unicode="&#xab;" d="M207 541l225 368h143l-229 -368l223 -377h-143zM563 541l225 368h144l-230 -368l224 -377h-144z" />
<glyph unicode="&#xac;" horiz-adv-x="1228" d="M96 662v118h1037v-559h-119v441h-918z" />
<glyph unicode="&#xad;" horiz-adv-x="684" d="M90 459v155h504v-155h-504z" />
<glyph unicode="&#xae;" horiz-adv-x="1638" d="M20 770q-1 160 63 308.5t172 256.5t256 172t308 62q160 2 308.5 -62t256.5 -172t172 -256.5t62 -308.5q2 -160 -62 -308t-172 -256t-256.5 -172t-308.5 -63q-161 0 -309 63.5t-255.5 171t-171 255.5t-63.5 309zM139 770q0 -193 89.5 -352t245.5 -249.5t345 -90.5t345 90 t245.5 249t89.5 353q0 146 -52.5 275t-143.5 220.5t-216.5 144t-267.5 52.5t-267.5 -52.5t-216.5 -144t-143.5 -220.5t-52.5 -275zM508 301v944h371q325 0 325 -266q0 -118 -68.5 -188t-179.5 -84l267 -406h-144l-258 404h-194v-404h-119zM627 811h209q135 0 192 33.5 t57 126.5q0 95 -50 131.5t-161 36.5h-247v-328z" />
<glyph unicode="&#xaf;" horiz-adv-x="454" d="M-53 1296v119h561v-119h-561z" />
<glyph unicode="&#xb0;" horiz-adv-x="819" d="M115 1245q0 123 86 209t209 86q122 0 208 -86q87 -87 87 -209t-87 -209q-86 -86 -208 -86q-123 0 -209 86t-86 209zM209 1245q0 -78 61 -139q62 -62 140 -62q77 0 139 62q61 61 61 139t-61 139q-62 62 -139 62q-78 0 -140 -62q-61 -61 -61 -139z" />
<glyph unicode="&#xb1;" horiz-adv-x="1228" d="M96 0v119h1037v-119h-1037zM96 557v119h459v360h119v-360h459v-119h-459v-358h-119v358h-459z" />
<glyph unicode="&#xb2;" horiz-adv-x="739" d="M68 614v119l313 297q82 78 121 138t39 120q0 133 -166 133q-91 0 -135.5 -45.5t-46.5 -128.5h-119q2 78 28 136t69.5 91.5t96 49.5t113.5 16q138 0 214.5 -64.5t76.5 -166.5q0 -90 -40 -167t-128 -159l-271 -250h439v-119h-604z" />
<glyph unicode="&#xb3;" horiz-adv-x="739" d="M43 854l119 8q13 -141 186 -141q89 0 141 48t52 132q0 85 -54 133.5t-141 48.5q-89 0 -131 -28l-10 4v102l280 273h-391v106h541v-106l-270 -260v-5q35 9 59 9q92 0 170 -72t78 -193q0 -132 -84.5 -215.5t-237.5 -83.5q-149 0 -221 59.5t-86 180.5z" />
<glyph unicode="&#xb4;" horiz-adv-x="454" d="M35 1225l180 291h221l-266 -291h-135z" />
<glyph unicode="&#xb5;" d="M154 -430v1454h159v-631q0 -141 61 -209.5t165 -68.5q122 0 204 88.5t82 238.5v582h160v-1024h-160v162h-4q-102 -191 -325 -191q-113 0 -183 82v-483h-159z" />
<glyph unicode="&#xb6;" horiz-adv-x="1228" d="M117 1143q0 190 119.5 293.5t328.5 103.5h479v-1970h-147v1864h-205v-1864h-147v1188q-191 0 -309 106q-119 107 -119 279z" />
<glyph unicode="&#xb7;" horiz-adv-x="569" d="M164 670q0 51 35 86t86 35t86 -35t35 -86t-35 -86t-86 -35t-86 35t-35 86z" />
<glyph unicode="&#xb8;" horiz-adv-x="454" d="M8 -414l33 88q59 -39 133 -39q113 0 113 80q0 44 -25 65t-65 21q-45 0 -84 -22l-35 43l129 178h98l-94 -127h4q30 10 78 10q65 0 109 -43.5t44 -105.5q0 -92 -71.5 -142.5t-177.5 -50.5q-80 0 -172 39q-7 2 -17 6z" />
<glyph unicode="&#xb9;" horiz-adv-x="739" d="M147 1260v114q62 23 139 74.5t117 91.5h76v-926h-131v746q-78 -59 -201 -100z" />
<glyph unicode="&#xba;" horiz-adv-x="815" d="M63 1237q0 132 93 233q91 99 252 99q169 0 256 -96q88 -94 88 -236q0 -135 -93 -236q-91 -98 -251 -98q-165 0 -255 93.5t-90 240.5zM182 1237q0 -105 62 -172.5t164 -67.5t163.5 67t61.5 173q0 105 -61.5 171.5t-163.5 66.5t-164 -66.5t-62 -171.5z" />
<glyph unicode="&#xbb;" d="M207 164l229 368l-223 377h143l219 -377l-225 -368h-143zM563 164l230 368l-224 377h144l219 -377l-225 -368h-144z" />
<glyph unicode="&#xbc;" horiz-adv-x="1708" d="M82 1260v114q62 23 139 74.5t117 91.5h76v-926h-131v746q-78 -59 -201 -100zM272 -25l947 1565h137l-946 -1565h-138zM963 223v109l428 594h127v-584h108v-119h-108v-223h-132v223h-423zM1096 342h290v403h-4z" />
<glyph unicode="&#xbd;" horiz-adv-x="1708" d="M82 1260v114q62 23 139 74.5t117 91.5h76v-926h-131v746q-78 -59 -201 -100zM190 -25l947 1565h137l-946 -1565h-138zM1022 0v119l313 297q82 78 121 138t39 120q0 133 -166 133q-91 0 -135.5 -45.5t-46.5 -128.5h-119q2 78 28 136t69.5 91.5t96 49.5t113.5 16 q138 0 214.5 -65t76.5 -167q0 -90 -40 -166.5t-128 -158.5l-270 -250h438v-119h-604z" />
<glyph unicode="&#xbe;" horiz-adv-x="1708" d="M82 854l119 8q13 -141 186 -141q89 0 141 48t52 132q0 85 -54 133.5t-141 48.5q-89 0 -131 -28l-10 4v102l280 273h-391v106h541v-106l-271 -260v-5q34 9 60 9q92 0 170 -72t78 -193q0 -132 -84.5 -215.5t-237.5 -83.5q-149 0 -221 59.5t-86 180.5zM375 -25l946 1565h137 l-946 -1565h-137zM963 223v109l428 594h127v-584h108v-119h-108v-223h-132v223h-423zM1096 342h290v403h-4z" />
<glyph unicode="&#xbf;" d="M164 -74q0 135 57 215q57 81 195 191q82 65 114.5 137t32.5 158v133h160v-105q0 -140 -37 -233q-39 -96 -149 -178q-106 -82 -156 -154q-45 -62 -45 -172q0 -104 63 -168.5t170 -64.5q121 0 183.5 75t62.5 211h160q0 -61 -10.5 -117t-39 -114.5t-72.5 -101t-118 -70 t-170 -27.5q-175 0 -289 99q-112 97 -112 286zM528 1020q0 47 34 81t81 34t81 -34t34 -81t-34 -81t-81 -34t-81 34t-34 81z" />
<glyph unicode="&#xc0;" horiz-adv-x="1368" d="M16 0l580 1540h176l580 -1540h-195l-153 434h-639l-154 -434h-195zM383 1909h221l180 -291h-135zM422 590h524l-260 733h-4z" />
<glyph unicode="&#xc1;" horiz-adv-x="1368" d="M16 0l580 1540h176l580 -1540h-195l-153 434h-639l-154 -434h-195zM422 590h524l-260 733h-4zM563 1618l180 291h222l-267 -291h-135z" />
<glyph unicode="&#xc2;" horiz-adv-x="1368" d="M16 0l580 1540h176l580 -1540h-195l-153 434h-639l-154 -434h-195zM385 1618l203 291h188l207 -291h-166l-135 190l-135 -190h-162zM422 590h524l-260 733h-4z" />
<glyph unicode="&#xc3;" horiz-adv-x="1368" d="M16 0l580 1540h176l580 -1540h-195l-153 434h-639l-154 -434h-195zM336 1634q12 108 66.5 167t146.5 59q65 0 158 -35l34 -15q67 -28 97 -28q40 0 64 28t26 66h104q-12 -107 -66.5 -166t-146.5 -59q-64 0 -157 35l-33 14q-73 29 -99 29q-40 0 -64 -28.5t-26 -66.5h-104z M422 590h524l-260 733h-4z" />
<glyph unicode="&#xc4;" horiz-adv-x="1368" d="M16 0l580 1540h176l580 -1540h-195l-153 434h-639l-154 -434h-195zM358 1745q0 47 34 81t81 34t81 -34t34 -81t-34 -81t-81 -34t-81 34t-34 81zM422 590h524l-260 733h-4zM780 1745q0 47 34 81t81 34t81 -34t34 -81t-34 -81t-81 -34t-81 34t-34 81z" />
<glyph unicode="&#xc5;" horiz-adv-x="1368" d="M16 0l580 1540h176l580 -1540h-195l-153 434h-639l-154 -434h-195zM422 590h524l-260 733h-4zM475 1794q0 86 61.5 147.5t147.5 61.5t147.5 -61.5t61.5 -147.5t-61.5 -147.5t-147.5 -61.5t-147.5 61.5t-61.5 147.5zM557 1794q0 -54 36.5 -90.5t90.5 -36.5t90.5 36.5 t36.5 90.5t-36.5 90.5t-90.5 36.5t-90.5 -36.5t-36.5 -90.5z" />
<glyph unicode="&#xc6;" horiz-adv-x="1933" d="M-2 0l874 1540h936v-156h-659v-516h639v-155h-639v-557h659v-156h-831v381h-574l-206 -381h-199zM487 537h490v897h-4z" />
<glyph unicode="&#xc7;" horiz-adv-x="1705" d="M129 770q-2 167 59 317t166 256t250.5 167t306.5 59q115 0 212 -22t166.5 -61t123.5 -88t90 -109t57.5 -117t34.5 -119l-174 -13q-106 373 -510 373q-121 0 -221.5 -36t-169 -97.5t-116 -144t-69.5 -174.5t-22 -191t20 -189.5t65.5 -174.5t113 -145t170 -97.5 t229.5 -36.5q207 0 338 110t183 316l174 -21q-22 -89 -56.5 -166t-93 -151.5t-135 -127t-186.5 -84.5t-242 -32q-222 0 -395 97t-271 279.5t-98 422.5zM676 -414l33 88q59 -39 133 -39q112 0 112 80q0 44 -25 65t-65 21q-45 0 -84 -22l-35 43l129 178h99l-94 -127h4 q30 10 78 10q65 0 109 -43.5t44 -105.5q0 -92 -72 -142.5t-178 -50.5q-80 0 -172 39q-6 2 -16 6z" />
<glyph unicode="&#xc8;" d="M174 0v1540h868v-156h-696v-516h676v-155h-676v-557h696v-156h-868zM340 1909h221l180 -291h-135z" />
<glyph unicode="&#xc9;" d="M174 0v1540h868v-156h-696v-516h676v-155h-676v-557h696v-156h-868zM489 1618l181 291h221l-266 -291h-136z" />
<glyph unicode="&#xca;" d="M174 0v1540h868v-156h-696v-516h676v-155h-676v-557h696v-156h-868zM270 1618l203 291h189l206 -291h-166l-135 190l-135 -190h-162z" />
<glyph unicode="&#xcb;" d="M174 0v1540h868v-156h-696v-516h676v-155h-676v-557h696v-156h-868zM244 1745q0 47 33.5 81t80.5 34t81 -34t34 -81t-34 -81t-81 -34t-80.5 34t-33.5 81zM666 1745q0 47 33.5 81t80.5 34t81 -34t34 -81t-34 -81t-81 -34t-80.5 34t-33.5 81z" />
<glyph unicode="&#xcc;" horiz-adv-x="569" d="M76 1909h221l180 -291h-135zM199 0v1540h172v-1540h-172z" />
<glyph unicode="&#xcd;" horiz-adv-x="569" d="M143 1618l181 291h221l-266 -291h-136zM199 0v1540h172v-1540h-172z" />
<glyph unicode="&#xce;" horiz-adv-x="569" d="M-14 1618l202 291h189l207 -291h-166l-135 190l-136 -190h-161zM199 0v1540h172v-1540h-172z" />
<glyph unicode="&#xcf;" horiz-adv-x="569" d="M-92 1745q0 47 34 81t81 34t80.5 -34t33.5 -81t-33.5 -81t-80.5 -34t-81 34t-34 81zM199 0v1540h172v-1540h-172zM330 1745q0 47 33.5 81t80.5 34t81 -34t34 -81t-34 -81t-81 -34t-80.5 34t-33.5 81z" />
<glyph unicode="&#xd0;" horiz-adv-x="1593" d="M70 743v144h120v653h478q173 0 311 -43t227.5 -115t148.5 -171.5t84 -206.5t25 -226t-29.5 -231.5t-90 -212t-146 -174t-205.5 -117.5t-260 -43h-543v743h-120zM362 156h338q140 0 253 52t183 140t107 198.5t37 233.5q0 98 -21 185.5t-68.5 165t-118.5 133t-177 88 t-238 32.5h-295v-497h476v-144h-476v-587z" />
<glyph unicode="&#xd1;" horiz-adv-x="1593" d="M182 0v1540h187l866 -1270h4v1270h172v-1540h-186l-867 1270h-4v-1270h-172zM449 1634q12 108 66.5 167t146.5 59q64 0 157 -35l35 -15q67 -28 96 -28q40 0 64 28t26 66h105q-12 -107 -66.5 -166t-146.5 -59q-65 0 -158 35l-33 14q-72 29 -98 29q-40 0 -64 -28.5 t-26 -66.5h-104z" />
<glyph unicode="&#xd2;" horiz-adv-x="1822" d="M129 770q-2 167 59 317t166 256t250.5 167t306.5 59q226 0 403.5 -97t278.5 -279.5t101 -422.5q2 -167 -59 -317t-166.5 -256t-251 -167t-306.5 -59q-169 0 -313 56.5t-248 159t-162.5 253t-58.5 330.5zM313 770q0 -84 21.5 -171t69.5 -172t116 -151.5t169.5 -107.5 t221.5 -41t222 41t170 107.5t115.5 151.5t69 172t21.5 171q0 99 -21.5 190.5t-69 174.5t-116 144.5t-169 97.5t-222.5 36q-121 0 -221.5 -36t-169 -97.5t-116 -144t-69.5 -174.5t-22 -191zM631 1909h221l180 -291h-135z" />
<glyph unicode="&#xd3;" horiz-adv-x="1822" d="M129 770q-2 167 59 317t166 256t250.5 167t306.5 59q226 0 403.5 -97t278.5 -279.5t101 -422.5q2 -167 -59 -317t-166.5 -256t-251 -167t-306.5 -59q-169 0 -313 56.5t-248 159t-162.5 253t-58.5 330.5zM313 770q0 -84 21.5 -171t69.5 -172t116 -151.5t169.5 -107.5 t221.5 -41t222 41t170 107.5t115.5 151.5t69 172t21.5 171q0 99 -21.5 190.5t-69 174.5t-116 144.5t-169 97.5t-222.5 36q-121 0 -221.5 -36t-169 -97.5t-116 -144t-69.5 -174.5t-22 -191zM791 1618l180 291h221l-266 -291h-135z" />
<glyph unicode="&#xd4;" horiz-adv-x="1822" d="M129 770q-2 167 59 317t166 256t250.5 167t306.5 59q226 0 403.5 -97t278.5 -279.5t101 -422.5q2 -167 -59 -317t-166.5 -256t-251 -167t-306.5 -59q-169 0 -313 56.5t-248 159t-162.5 253t-58.5 330.5zM313 770q0 -84 21.5 -171t69.5 -172t116 -151.5t169.5 -107.5 t221.5 -41t222 41t170 107.5t115.5 151.5t69 172t21.5 171q0 99 -21.5 190.5t-69 174.5t-116 144.5t-169 97.5t-222.5 36q-121 0 -221.5 -36t-169 -97.5t-116 -144t-69.5 -174.5t-22 -191zM612 1618l203 291h189l206 -291h-166l-135 190l-135 -190h-162z" />
<glyph unicode="&#xd5;" horiz-adv-x="1822" d="M129 770q-2 167 59 317t166 256t250.5 167t306.5 59q226 0 403.5 -97t278.5 -279.5t101 -422.5q2 -167 -59 -317t-166.5 -256t-251 -167t-306.5 -59q-169 0 -313 56.5t-248 159t-162.5 253t-58.5 330.5zM313 770q0 -84 21.5 -171t69.5 -172t116 -151.5t169.5 -107.5 t221.5 -41t222 41t170 107.5t115.5 151.5t69 172t21.5 171q0 99 -21.5 190.5t-69 174.5t-116 144.5t-169 97.5t-222.5 36q-121 0 -221.5 -36t-169 -97.5t-116 -144t-69.5 -174.5t-22 -191zM563 1634q12 108 66.5 167t146.5 59q65 0 158 -35l35 -15q67 -28 96 -28q40 0 64 28 t26 66h105q-12 -107 -66.5 -166t-146.5 -59q-65 0 -158 35l-33 14q-72 29 -98 29q-40 0 -64 -28.5t-26 -66.5h-105z" />
<glyph unicode="&#xd6;" horiz-adv-x="1822" d="M129 770q-2 167 59 317t166 256t250.5 167t306.5 59q226 0 403.5 -97t278.5 -279.5t101 -422.5q2 -167 -59 -317t-166.5 -256t-251 -167t-306.5 -59q-169 0 -313 56.5t-248 159t-162.5 253t-58.5 330.5zM313 770q0 -84 21.5 -171t69.5 -172t116 -151.5t169.5 -107.5 t221.5 -41t222 41t170 107.5t115.5 151.5t69 172t21.5 171q0 99 -21.5 190.5t-69 174.5t-116 144.5t-169 97.5t-222.5 36q-121 0 -221.5 -36t-169 -97.5t-116 -144t-69.5 -174.5t-22 -191zM586 1745q0 47 33.5 81t80.5 34t81 -34t34 -81t-34 -81t-81 -34t-80.5 34t-33.5 81z M1008 1745q0 47 33.5 81t80.5 34t81 -34t34 -81t-34 -81t-81 -34t-80.5 34t-33.5 81z" />
<glyph unicode="&#xd7;" horiz-adv-x="1228" d="M150 137l380 381l-380 381l83 84l379 -383l383 383l84 -84l-383 -381l383 -381l-84 -84l-383 383l-379 -383z" />
<glyph unicode="&#xd8;" horiz-adv-x="1822" d="M125 49l184 184q-180 214 -180 537q-2 167 59 317t166 256t250.5 167t306.5 59q325 0 537 -193l182 185l68 -70l-182 -184q178 -211 178 -537q2 -167 -59 -317t-166.5 -256t-251 -167t-306.5 -59q-324 0 -536 193l-182 -184zM313 770q0 -103 32.5 -209t96.5 -194l885 888 q-158 158 -416 158q-121 0 -221.5 -36t-169 -97.5t-116 -144t-69.5 -174.5t-22 -191zM504 293q156 -166 407 -166q120 0 222 41t170 107.5t115.5 151.5t69 172t21.5 171q0 245 -118 412z" />
<glyph unicode="&#xd9;" horiz-adv-x="1478" d="M174 510v1030h172v-1003q0 -201 103.5 -305.5t289.5 -104.5q179 0 286.5 114t107.5 330v969h172v-971q0 -291 -166 -450q-151 -148 -400 -148q-271 0 -418 144.5t-147 394.5zM469 1909h221l180 -291h-135z" />
<glyph unicode="&#xda;" horiz-adv-x="1478" d="M174 510v1030h172v-1003q0 -201 103.5 -305.5t289.5 -104.5q179 0 286.5 114t107.5 330v969h172v-971q0 -291 -166 -450q-151 -148 -400 -148q-271 0 -418 144.5t-147 394.5zM618 1618l181 291h221l-266 -291h-136z" />
<glyph unicode="&#xdb;" horiz-adv-x="1478" d="M174 510v1030h172v-1003q0 -201 103.5 -305.5t289.5 -104.5q179 0 286.5 114t107.5 330v969h172v-971q0 -291 -166 -450q-151 -148 -400 -148q-271 0 -418 144.5t-147 394.5zM440 1618l203 291h188l207 -291h-166l-135 190l-135 -190h-162z" />
<glyph unicode="&#xdc;" horiz-adv-x="1478" d="M174 510v1030h172v-1003q0 -201 103.5 -305.5t289.5 -104.5q179 0 286.5 114t107.5 330v969h172v-971q0 -291 -166 -450q-151 -148 -400 -148q-271 0 -418 144.5t-147 394.5zM414 1745q0 47 33.5 81t80.5 34t81 -34t34 -81t-34 -81t-81 -34t-80.5 34t-33.5 81zM836 1745 q0 47 33.5 81t80.5 34t81 -34t34 -81t-34 -81t-81 -34t-80.5 34t-33.5 81z" />
<glyph unicode="&#xdd;" horiz-adv-x="1253" d="M14 1540h211l406 -758l397 758h211l-522 -911v-629h-172v629zM496 1618l180 291h221l-266 -291h-135z" />
<glyph unicode="&#xde;" horiz-adv-x="1251" d="M174 0v1540h172v-278h318q237 0 370 -126.5t133 -349.5q0 -146 -65.5 -254.5t-171.5 -162.5t-236 -54h-348v-315h-172zM346 471h266q78 0 143.5 18t117 55t81 99.5t29.5 144.5q0 158 -94 238t-262 80h-281v-635z" />
<glyph unicode="&#xdf;" d="M154 0v1165q0 175 102 289q103 115 301 115q56 0 111 -13.5t106.5 -43t91 -71.5t63 -103.5t23.5 -133.5q0 -260 -219 -330v-4q111 -31 178 -92q115 -99 115 -307q0 -127 -55 -236.5t-159.5 -178t-236.5 -68.5q-51 0 -133 16v143l25 -4q53 -12 90 -12q51 0 102 21.5 t95.5 62.5t72 111.5t27.5 158.5q0 145 -87.5 228.5t-231.5 83.5h-56v143h70q112 0 178 64t66 178q0 113 -64.5 178t-185.5 65q-106 0 -168 -75t-62 -205v-1145h-159z" />
<glyph unicode="&#xe0;" d="M98 276q0 150 91 227t292 87h17q237 14 319 16v78q0 116 -61.5 177t-198.5 61q-128 0 -190 -48.5t-80 -146.5h-158q48 326 430 326q203 0 310.5 -89t107.5 -255v-508q0 -71 14 -201h-174v135h-4q-47 -83 -139.5 -123.5t-204.5 -40.5q-169 0 -270 86.5t-101 218.5z M270 285q0 -79 65 -131t169 -52q76 0 145.5 26.5t118.5 87t49 142.5v127l-270 -12q-141 -6 -209 -50t-68 -138zM299 1516h221l180 -291h-135z" />
<glyph unicode="&#xe1;" d="M98 276q0 150 91 227t292 87h17q237 14 319 16v78q0 116 -61.5 177t-198.5 61q-128 0 -190 -48.5t-80 -146.5h-158q48 326 430 326q203 0 310.5 -89t107.5 -255v-508q0 -71 14 -201h-174v135h-4q-47 -83 -139.5 -123.5t-204.5 -40.5q-169 0 -270 86.5t-101 218.5z M270 285q0 -79 65 -131t169 -52q76 0 145.5 26.5t118.5 87t49 142.5v127l-270 -12q-141 -6 -209 -50t-68 -138zM438 1225l180 291h222l-267 -291h-135z" />
<glyph unicode="&#xe2;" d="M98 276q0 150 91 227t292 87h17q237 14 319 16v78q0 116 -61.5 177t-198.5 61q-128 0 -190 -48.5t-80 -146.5h-158q48 326 430 326q203 0 310.5 -89t107.5 -255v-508q0 -71 14 -201h-174v135h-4q-47 -83 -139.5 -123.5t-204.5 -40.5q-169 0 -270 86.5t-101 218.5z M270 285q0 -79 65 -131t169 -52q76 0 145.5 26.5t118.5 87t49 142.5v127l-270 -12q-141 -6 -209 -50t-68 -138zM270 1225l203 291h189l206 -291h-166l-135 190l-135 -190h-162z" />
<glyph unicode="&#xe3;" d="M98 276q0 150 91 227t292 87h17q237 14 319 16v78q0 116 -61.5 177t-198.5 61q-128 0 -190 -48.5t-80 -146.5h-158q48 326 430 326q203 0 310.5 -89t107.5 -255v-508q0 -71 14 -201h-174v135h-4q-47 -83 -139.5 -123.5t-204.5 -40.5q-169 0 -270 86.5t-101 218.5z M221 1241q12 107 66.5 166t146.5 59q68 0 158 -34l35 -15q67 -28 96 -28q40 0 64 28t26 66h105q-12 -108 -66.5 -167t-146.5 -59q-65 0 -158 35l-33 15q-70 28 -98 28q-40 0 -64 -28t-26 -66h-105zM270 285q0 -79 65 -131t169 -52q76 0 145.5 26.5t118.5 87t49 142.5v127 l-270 -12q-141 -6 -209 -50t-68 -138z" />
<glyph unicode="&#xe4;" d="M98 276q0 150 91 227t292 87h17q237 14 319 16v78q0 116 -61.5 177t-198.5 61q-128 0 -190 -48.5t-80 -146.5h-158q48 326 430 326q203 0 310.5 -89t107.5 -255v-508q0 -71 14 -201h-174v135h-4q-47 -83 -139.5 -123.5t-204.5 -40.5q-169 0 -270 86.5t-101 218.5z M244 1352q0 47 33.5 80.5t80.5 33.5t81 -33.5t34 -80.5t-34 -81t-81 -34t-80.5 34t-33.5 81zM270 285q0 -79 65 -131t169 -52q76 0 145.5 26.5t118.5 87t49 142.5v127l-270 -12q-141 -6 -209 -50t-68 -138zM666 1352q0 47 33.5 80.5t80.5 33.5t81 -33.5t34 -80.5t-34 -81 t-81 -34t-80.5 34t-33.5 81z" />
<glyph unicode="&#xe5;" d="M98 276q0 150 91 227t292 87h17q237 14 319 16v78q0 116 -61.5 177t-198.5 61q-128 0 -190 -48.5t-80 -146.5h-158q48 326 430 326q203 0 310.5 -89t107.5 -255v-508q0 -71 14 -201h-174v135h-4q-47 -83 -139.5 -123.5t-204.5 -40.5q-169 0 -270 86.5t-101 218.5z M270 285q0 -79 65 -131t169 -52q76 0 145.5 26.5t118.5 87t49 142.5v127l-270 -12q-141 -6 -209 -50t-68 -138zM360 1401q0 86 61.5 147.5t147.5 61.5t147.5 -61.5t61.5 -147.5t-61.5 -147.5t-147.5 -61.5t-147.5 61.5t-61.5 147.5zM442 1401q0 -54 36.5 -90.5t90.5 -36.5 t90.5 36.5t36.5 90.5t-36.5 90.5t-90.5 36.5t-90.5 -36.5t-36.5 -90.5z" />
<glyph unicode="&#xe6;" horiz-adv-x="1820" d="M98 268q0 142 89.5 227.5t258.5 98.5q114 9 347 12v35q0 132 -60.5 200t-193.5 68q-109 0 -169 -45.5t-79 -138.5l-160 4q27 145 128.5 234.5t285.5 89.5q266 0 342 -199q120 199 389 199q93 0 171.5 -31.5t141 -94.5t98 -168t35.5 -243v-41h-770q0 -72 14 -132 t46 -113.5t94 -84t149 -30.5q123 0 192 57t101 172l166 -18q-51 -153 -166 -254q-113 -101 -284 -101q-158 0 -246 52q-90 53 -162 165q-62 -108 -157.5 -162.5t-239.5 -54.5q-98 0 -171 26.5t-113 71t-58.5 94.5t-18.5 105zM270 283q0 -81 56 -124.5t155 -43.5 q312 0 312 321v39q-88 0 -166 -4q-88 -5 -133 -10h-9q-102 -11 -158.5 -55.5t-56.5 -122.5zM954 606h596q-11 141 -87 222t-199 81q-72 0 -128 -25t-92 -69.5t-57.5 -95.5t-32.5 -113z" />
<glyph unicode="&#xe7;" d="M98 508q0 163 73.5 289t192 191t257.5 65q182 0 301.5 -91t148.5 -264l-164 -16q-12 35 -23.5 60.5t-34.5 59t-50.5 54.5t-71.5 36.5t-98 16.5q-157 0 -258 -110t-101 -293q0 -166 88 -279q87 -112 263 -112q216 0 286 237l170 -20q-115 -361 -459 -361 q-122 0 -221.5 43.5t-164 118t-99.5 171t-35 204.5zM391 -414l33 88q59 -39 133 -39q113 0 113 80q0 44 -25 65t-65 21q-45 0 -84 -22l-35 43l129 178h98l-94 -127h4q30 10 78 10q65 0 109 -43.5t44 -105.5q0 -92 -71.5 -142.5t-177.5 -50.5q-80 0 -172 39q-7 2 -17 6z" />
<glyph unicode="&#xe8;" d="M98 473q0 258 131 420q136 160 359 160q226 0 357.5 -140t131.5 -393v-45h-807q0 -166 89.5 -263t228.5 -97q123 0 205 67q65 53 94 131l164 -24q-144 -318 -471 -318q-210 0 -346 144t-136 358zM274 606h631q-17 144 -98 223.5t-215 79.5q-74 0 -134.5 -26.5t-98.5 -71 t-59.5 -97t-25.5 -108.5zM299 1516h221l180 -291h-135z" />
<glyph unicode="&#xe9;" d="M98 473q0 258 131 420q136 160 359 160q226 0 357.5 -140t131.5 -393v-45h-807q0 -166 89.5 -263t228.5 -97q123 0 205 67q65 53 94 131l164 -24q-144 -318 -471 -318q-210 0 -346 144t-136 358zM274 606h631q-17 144 -98 223.5t-215 79.5q-74 0 -134.5 -26.5t-98.5 -71 t-59.5 -97t-25.5 -108.5zM438 1225l180 291h222l-267 -291h-135z" />
<glyph unicode="&#xea;" d="M98 473q0 258 131 420q136 160 359 160q226 0 357.5 -140t131.5 -393v-45h-807q0 -166 89.5 -263t228.5 -97q123 0 205 67q65 53 94 131l164 -24q-144 -318 -471 -318q-210 0 -346 144t-136 358zM270 1225l203 291h189l206 -291h-166l-135 190l-135 -190h-162zM274 606 h631q-17 144 -98 223.5t-215 79.5q-74 0 -134.5 -26.5t-98.5 -71t-59.5 -97t-25.5 -108.5z" />
<glyph unicode="&#xeb;" d="M98 473q0 258 131 420q136 160 359 160q226 0 357.5 -140t131.5 -393v-45h-807q0 -166 89.5 -263t228.5 -97q123 0 205 67q65 53 94 131l164 -24q-144 -318 -471 -318q-210 0 -346 144t-136 358zM244 1352q0 47 33.5 80.5t80.5 33.5t81 -33.5t34 -80.5t-34 -81t-81 -34 t-80.5 34t-33.5 81zM274 606h631q-17 144 -98 223.5t-215 79.5q-74 0 -134.5 -26.5t-98.5 -71t-59.5 -97t-25.5 -108.5zM666 1352q0 47 33.5 80.5t80.5 33.5t81 -33.5t34 -80.5t-34 -81t-81 -34t-80.5 34t-33.5 81z" />
<glyph unicode="&#xec;" horiz-adv-x="454" d="M-43 1516h221l180 -291h-135zM147 0v1024h160v-1024h-160z" />
<glyph unicode="&#xed;" horiz-adv-x="454" d="M96 1225l180 291h222l-267 -291h-135zM147 0v1024h160v-1024h-160z" />
<glyph unicode="&#xee;" horiz-adv-x="454" d="M-72 1225l203 291h188l207 -291h-166l-135 190l-135 -190h-162zM147 0v1024h160v-1024h-160z" />
<glyph unicode="&#xef;" horiz-adv-x="454" d="M-98 1352q0 47 33.5 80.5t80.5 33.5t81 -33.5t34 -80.5t-34 -81t-81 -34t-80.5 34t-33.5 81zM147 0v1024h160v-1024h-160zM324 1352q0 47 33.5 80.5t80.5 33.5t81 -33.5t34 -80.5t-34 -81t-81 -34t-80.5 34t-33.5 81z" />
<glyph unicode="&#xf0;" horiz-adv-x="1253" d="M98 512q0 105 36 201.5t101.5 172.5t167 121.5t224.5 45.5q198 0 325 -160h4q-118 269 -290 422l-236 -127l-78 69l230 125q-99 74 -234 134l113 90q124 -52 256 -150l233 129l78 -74l-229 -125q174 -156 265 -369t91 -468q0 -120 -33 -223.5t-96.5 -183.5t-166 -125.5 t-232.5 -45.5q-131 0 -234.5 44.5t-166.5 121t-95.5 172t-32.5 203.5zM270 512q0 -178 97 -287.5t260 -109.5t259.5 109.5t96.5 287.5t-96.5 287.5t-259.5 109.5t-260 -109.5t-97 -287.5z" />
<glyph unicode="&#xf1;" d="M154 0v1024h159v-174h4q102 190 326 190q44 0 87.5 -9.5t90.5 -34.5t82.5 -63t58.5 -101.5t23 -143.5v-688h-160v618q0 142 -60.5 210.5t-164.5 68.5q-122 0 -204.5 -89t-82.5 -239v-569h-159zM221 1241q12 107 66.5 166t146.5 59q68 0 158 -34l35 -15q67 -28 96 -28 q40 0 64 28t26 66h105q-12 -108 -66.5 -167t-146.5 -59q-65 0 -158 35l-33 15q-70 28 -98 28q-40 0 -64 -28t-26 -66h-105z" />
<glyph unicode="&#xf2;" horiz-adv-x="1253" d="M98 512q0 105 36 201.5t101.5 172.5t167 121.5t224.5 45.5q106 0 194 -29.5t149 -80t103 -119.5t62 -147.5t20 -164.5q0 -105 -35.5 -201.5t-101 -172.5t-167 -121.5t-224.5 -45.5q-131 0 -234.5 44.5t-166.5 121t-95.5 172t-32.5 203.5zM270 512q0 -178 97 -287.5 t260 -109.5t259.5 109.5t96.5 287.5t-96.5 287.5t-259.5 109.5t-260 -109.5t-97 -287.5zM356 1516h222l180 -291h-135z" />
<glyph unicode="&#xf3;" horiz-adv-x="1253" d="M98 512q0 105 36 201.5t101.5 172.5t167 121.5t224.5 45.5q106 0 194 -29.5t149 -80t103 -119.5t62 -147.5t20 -164.5q0 -105 -35.5 -201.5t-101 -172.5t-167 -121.5t-224.5 -45.5q-131 0 -234.5 44.5t-166.5 121t-95.5 172t-32.5 203.5zM270 512q0 -178 97 -287.5 t260 -109.5t259.5 109.5t96.5 287.5t-96.5 287.5t-259.5 109.5t-260 -109.5t-97 -287.5zM496 1225l180 291h221l-266 -291h-135z" />
<glyph unicode="&#xf4;" horiz-adv-x="1253" d="M98 512q0 105 36 201.5t101.5 172.5t167 121.5t224.5 45.5q106 0 194 -29.5t149 -80t103 -119.5t62 -147.5t20 -164.5q0 -105 -35.5 -201.5t-101 -172.5t-167 -121.5t-224.5 -45.5q-131 0 -234.5 44.5t-166.5 121t-95.5 172t-32.5 203.5zM270 512q0 -178 97 -287.5 t260 -109.5t259.5 109.5t96.5 287.5t-96.5 287.5t-259.5 109.5t-260 -109.5t-97 -287.5zM328 1225l202 291h189l207 -291h-166l-135 190l-136 -190h-161z" />
<glyph unicode="&#xf5;" horiz-adv-x="1253" d="M98 512q0 105 36 201.5t101.5 172.5t167 121.5t224.5 45.5q106 0 194 -29.5t149 -80t103 -119.5t62 -147.5t20 -164.5q0 -105 -35.5 -201.5t-101 -172.5t-167 -121.5t-224.5 -45.5q-131 0 -234.5 44.5t-166.5 121t-95.5 172t-32.5 203.5zM270 512q0 -178 97 -287.5 t260 -109.5t259.5 109.5t96.5 287.5t-96.5 287.5t-259.5 109.5t-260 -109.5t-97 -287.5zM279 1241q12 107 66.5 166t146.5 59q67 0 157 -34l35 -15q67 -28 96 -28q40 0 64 28t26 66h105q-12 -108 -66.5 -167t-146.5 -59q-65 0 -158 35l-33 15q-70 28 -98 28q-40 0 -64 -28 t-26 -66h-104z" />
<glyph unicode="&#xf6;" horiz-adv-x="1253" d="M98 512q0 105 36 201.5t101.5 172.5t167 121.5t224.5 45.5q106 0 194 -29.5t149 -80t103 -119.5t62 -147.5t20 -164.5q0 -105 -35.5 -201.5t-101 -172.5t-167 -121.5t-224.5 -45.5q-131 0 -234.5 44.5t-166.5 121t-95.5 172t-32.5 203.5zM270 512q0 -178 97 -287.5 t260 -109.5t259.5 109.5t96.5 287.5t-96.5 287.5t-259.5 109.5t-260 -109.5t-97 -287.5zM301 1352q0 47 34 80.5t81 33.5t80.5 -33.5t33.5 -80.5t-33.5 -81t-80.5 -34t-81 34t-34 81zM723 1352q0 47 34 80.5t81 33.5t80.5 -33.5t33.5 -80.5t-33.5 -81t-80.5 -34t-81 34 t-34 81z" />
<glyph unicode="&#xf7;" horiz-adv-x="1228" d="M96 459v119h1037v-119h-1037zM494 96q0 51 34.5 86t85.5 35t86 -35t35 -86t-35 -86t-86 -35t-85.5 35t-34.5 86zM494 940q0 51 34.5 86t85.5 35t86 -35t35 -86t-35 -86t-86 -35t-85.5 35t-34.5 86z" />
<glyph unicode="&#xf8;" horiz-adv-x="1253" d="M61 37l140 133q-103 145 -103 342q0 105 36 201.5t101.5 172.5t167 121.5t224.5 45.5q225 0 364 -127l133 127l68 -66l-139 -133q102 -144 102 -342q0 -105 -35.5 -201.5t-101 -172.5t-167 -121.5t-224.5 -45.5q-231 0 -363 129l-135 -129zM270 512q0 -128 54 -225 l548 524q-91 98 -245 98q-163 0 -260 -109.5t-97 -287.5zM381 211q96 -96 246 -96q163 0 259.5 109.5t96.5 287.5q0 135 -55 223z" />
<glyph unicode="&#xf9;" d="M154 350v674h159v-631q0 -141 61 -209.5t165 -68.5q122 0 204 88.5t82 238.5v582h160v-1024h-160v162h-4q-102 -191 -325 -191q-51 0 -97.5 11t-92 38t-78.5 69t-53.5 109t-20.5 152zM299 1516h221l180 -291h-135z" />
<glyph unicode="&#xfa;" d="M154 350v674h159v-631q0 -141 61 -209.5t165 -68.5q122 0 204 88.5t82 238.5v582h160v-1024h-160v162h-4q-102 -191 -325 -191q-51 0 -97.5 11t-92 38t-78.5 69t-53.5 109t-20.5 152zM438 1225l180 291h222l-267 -291h-135z" />
<glyph unicode="&#xfb;" d="M154 350v674h159v-631q0 -141 61 -209.5t165 -68.5q122 0 204 88.5t82 238.5v582h160v-1024h-160v162h-4q-102 -191 -325 -191q-51 0 -97.5 11t-92 38t-78.5 69t-53.5 109t-20.5 152zM270 1225l203 291h189l206 -291h-166l-135 190l-135 -190h-162z" />
<glyph unicode="&#xfc;" d="M154 350v674h159v-631q0 -141 61 -209.5t165 -68.5q122 0 204 88.5t82 238.5v582h160v-1024h-160v162h-4q-102 -191 -325 -191q-51 0 -97.5 11t-92 38t-78.5 69t-53.5 109t-20.5 152zM244 1352q0 47 33.5 80.5t80.5 33.5t81 -33.5t34 -80.5t-34 -81t-81 -34t-80.5 34 t-33.5 81zM666 1352q0 47 33.5 80.5t80.5 33.5t81 -33.5t34 -80.5t-34 -81t-81 -34t-80.5 34t-33.5 81z" />
<glyph unicode="&#xfd;" horiz-adv-x="1024" d="M16 1024h183l313 -848h4l315 848h177l-598 -1454h-174l196 450zM381 1225l180 291h221l-266 -291h-135z" />
<glyph unicode="&#xfe;" horiz-adv-x="1251" d="M154 -430v1970h159v-694h4q29 44 53.5 71t63.5 54q96 69 246 69q68 0 134 -19t128 -61.5t108.5 -103t74.5 -149.5t28 -195q0 -237 -140.5 -389t-353.5 -152q-119 0 -207 54t-135 141h-4v-596h-159zM313 504q0 -163 93 -279q91 -110 249 -110q159 0 240 112q86 115 86 281 q0 186 -92 287.5t-240 101.5q-138 0 -237 -102t-99 -291z" />
<glyph unicode="&#xff;" horiz-adv-x="1024" d="M16 1024h183l313 -848h4l315 848h177l-598 -1454h-174l196 450zM186 1352q0 47 34 80.5t81 33.5t81 -33.5t34 -80.5t-34 -81t-81 -34t-81 34t-34 81zM608 1352q0 47 34 80.5t81 33.5t81 -33.5t34 -80.5t-34 -81t-81 -34t-81 34t-34 81z" />
<glyph unicode="&#x152;" horiz-adv-x="2048" d="M115 770q0 166 37.5 302.5t100 227t147.5 152.5t176.5 89.5t189.5 27.5q84 0 155 -18t116 -42.5t86.5 -64t61 -66.5t44.5 -67h4v229h719v-156h-547v-516h539v-155h-539v-557h547v-156h-719v242h-4q-71 -134 -194 -202.5t-269 -68.5q-132 0 -240.5 43t-184 117.5t-127 176 t-75.5 218t-24 244.5zM299 795q0 -326 122.5 -497t344.5 -171q215 0 340 180q127 183 127 488q0 290 -124.5 454t-344.5 164q-143 0 -249.5 -82t-161 -221t-54.5 -315z" />
<glyph unicode="&#x153;" horiz-adv-x="1933" d="M98 512q0 140 59.5 262t176 200.5t266.5 78.5q144 0 235.5 -60t151.5 -172q71 116 165.5 174t236.5 58q93 0 171.5 -31.5t141 -94.5t98 -168t35.5 -243v-41h-770q0 -72 14 -132t46 -113.5t94 -84t149 -30.5q123 0 192 57t101 172l166 -18q-51 -153 -166 -254 q-113 -101 -285 -101q-144 0 -239 55.5t-162 172.5q-65 -114 -159 -171t-236 -57q-226 0 -355 150q-127 151 -127 391zM270 512q0 -189 84.5 -293t229.5 -104q73 0 131 27.5t93 69.5t57.5 98t31 108t8.5 104q0 183 -84 285t-227 102q-151 0 -237.5 -108.5t-86.5 -288.5z M1067 606h596q-10 141 -87 222t-200 81q-72 0 -128 -25t-91.5 -69.5t-57 -95.5t-32.5 -113z" />
<glyph unicode="&#x178;" horiz-adv-x="1253" d="M14 1540h211l406 -758l397 758h211l-522 -911v-629h-172v629zM301 1745q0 47 34 81t81 34t80.5 -34t33.5 -81t-33.5 -81t-80.5 -34t-81 34t-34 81zM723 1745q0 47 34 81t81 34t80.5 -34t33.5 -81t-33.5 -81t-80.5 -34t-81 34t-34 81z" />
<glyph unicode="&#x2c6;" horiz-adv-x="454" d="M-72 1225l203 291h188l207 -291h-166l-135 190l-135 -190h-162z" />
<glyph unicode="&#x2dc;" horiz-adv-x="454" d="M-121 1241q12 107 66.5 166t146.5 59q68 0 158 -34l35 -15q67 -28 96 -28q40 0 64 28t26 66h104q-12 -108 -66.5 -167t-146.5 -59q-64 0 -157 35l-33 15q-70 28 -98 28q-40 0 -64 -28t-26 -66h-105z" />
<glyph unicode="&#x2000;" horiz-adv-x="1001" />
<glyph unicode="&#x2001;" horiz-adv-x="2003" />
<glyph unicode="&#x2002;" horiz-adv-x="1001" />
<glyph unicode="&#x2003;" horiz-adv-x="2003" />
<glyph unicode="&#x2004;" horiz-adv-x="667" />
<glyph unicode="&#x2005;" horiz-adv-x="500" />
<glyph unicode="&#x2006;" horiz-adv-x="333" />
<glyph unicode="&#x2007;" horiz-adv-x="333" />
<glyph unicode="&#x2008;" horiz-adv-x="250" />
<glyph unicode="&#x2009;" horiz-adv-x="400" />
<glyph unicode="&#x200a;" horiz-adv-x="111" />
<glyph unicode="&#x2010;" horiz-adv-x="684" d="M90 459v155h504v-155h-504z" />
<glyph unicode="&#x2011;" horiz-adv-x="684" d="M90 459v155h504v-155h-504z" />
<glyph unicode="&#x2012;" horiz-adv-x="684" d="M90 459v155h504v-155h-504z" />
<glyph unicode="&#x2013;" horiz-adv-x="1024" d="M0 465v143h1024v-143h-1024z" />
<glyph unicode="&#x2014;" horiz-adv-x="2048" d="M0 465v143h2048v-143h-2048z" />
<glyph unicode="&#x2018;" horiz-adv-x="569" d="M115 1100l235 469l105 -49l-176 -496z" />
<glyph unicode="&#x2019;" horiz-adv-x="569" d="M115 1073l176 496l164 -76l-236 -469z" />
<glyph unicode="&#x201a;" horiz-adv-x="569" d="M115 -283l176 496l164 -76l-236 -469z" />
<glyph unicode="&#x201c;" d="M197 1100l235 469l105 -49l-177 -496zM602 1100l236 469l104 -49l-176 -496z" />
<glyph unicode="&#x201d;" d="M197 1073l176 496l164 -76l-236 -469zM602 1073l176 496l164 -76l-235 -469z" />
<glyph unicode="&#x201e;" d="M197 -283l176 496l164 -76l-236 -469zM602 -283l176 496l164 -76l-235 -469z" />
<glyph unicode="&#x2022;" horiz-adv-x="1024" d="M127 770q0 158 113.5 271.5t271.5 113.5t271.5 -113.5t113.5 -271.5t-113.5 -271.5t-271.5 -113.5t-271.5 113.5t-113.5 271.5z" />
<glyph unicode="&#x2026;" horiz-adv-x="2048" d="M227 90q0 47 34 81t81 34t81 -34t34 -81t-34 -81t-81 -34t-81 34t-34 81zM909 90q0 47 34 81t81 34t81 -34t34 -81t-34 -81t-81 -34t-81 34t-34 81zM1591 90q0 47 34 81t81 34t81 -34t34 -81t-34 -81t-81 -34t-81 34t-34 81z" />
<glyph unicode="&#x202f;" horiz-adv-x="400" />
<glyph unicode="&#x2039;" horiz-adv-x="569" d="M100 541l226 368h143l-229 -368l223 -377h-144z" />
<glyph unicode="&#x203a;" horiz-adv-x="569" d="M100 164l230 368l-224 377h144l219 -377l-225 -368h-144z" />
<glyph unicode="&#x205f;" horiz-adv-x="500" />
<glyph unicode="&#x2122;" horiz-adv-x="2027" d="M25 1434v106h659v-106h-270v-738h-119v738h-270zM819 696v844h195l262 -661l254 661h194v-844h-118v738h-4l-293 -738h-74l-293 738h-4v-738h-119z" />
<glyph unicode="&#x25fc;" horiz-adv-x="1024" d="M0 0v1024h1024v-1024h-1024z" />
</font>
</defs>
</svg>
