<svg height="186" viewBox="0 0 155 186" width="155" xmlns="http://www.w3.org/2000/svg"><g fill="#0d3064" transform="translate(0 -1)"><path d="m81.59 141.54v-40.54c-.0110094-2.3614874-1.928487-4.2700257-4.29-4.27-2.3654135-.0055395-4.2889789 1.9046057-4.3 4.27v40.58c-5.5809298 1.944206-9.1030918 7.458953-8.52 13.34.7321201 6.450193 6.1103222 11.371674 12.6 11.53 6.2905693.141957 11.7499736-4.312585 12.8731405-10.5037 1.123167-6.191116-2.4235794-12.279517-8.3631405-14.3563z"/><path d="m154.51 41.77c0-13-4.95-27.81-9.8-35.76-1.551531-2.52673045-4.098172-4.28053965-7.012064-4.82903695s-5.923904.15935376-8.287936 1.94903695c-9.13 6.87-23.41 20.39-26.86 26.87-.729492 1.3894216-2.160868 2.2682018-3.73 2.29-.512204.0013412-1.0204128-.0901364-1.5-.27-6.4517924-2.1295454-13.2059081-3.2000727-20-3.17-6.7940919-.0300727-13.5482076 1.0404546-20 3.17-.4795872.1798636-.987796.2713412-1.5.27-1.601493.0114904-3.0754026-.8720837-3.82-2.29-3.48-6.48-17.77-20-26.9-26.87-2.3627549-1.79057722-5.3718419-2.50000809-8.2856091-1.95343868s-5.4611855 2.29829896-7.0143909 4.82343868c-4.85 8-9.8 22.77-9.8 35.77 0 22.43 6.78 41.6 4.94 64.79-.94 11.36-1.21 24.06-1.24 34.06 0 11.24 1.48 21.47 3 26.77.26125488.910593.9372598 1.644289 1.82346039 1.979075.8862006.334787 1.87846451.231327 2.67653961-.279075l12.8-8.09c.4627593-.296909 1.050874-.316847 1.5326785-.051959.4818045.264889.7800759.772146.7773215 1.321959l.09 6.52c.0120195 1.123798.6511475 2.146623 1.6559389 2.650072 1.0047915.503449 2.2066979.403071 3.1140611-.260072 4.2-3 10-7.16 12.18-8.16.3868535-.166076.8261272-.159541 1.2078692.017969.3817421.17751.6698214.509195.7921308.912031.31 1.06.72 2.36 1 3.12 5.36 11.64 15.58 19.89 30.81 19.9 15.22 0 25.45-8.26 30.81-19.9.3-.75.71-2.06 1-3.12.122309-.402836.410389-.734521.792131-.912031s.821015-.184045 1.207869-.017969c2.15 1 8 5.12 12.18 8.16.907363.663143 2.10927.763521 3.114061.260072 1.004792-.503449 1.64392-1.526274 1.655939-2.650072l.09-6.52c-.061707-.61511.260273-1.205078.810977-1.485959.550703-.280881 1.217323-.195139 1.679023.215959l12.81 8.14c.798075.510402 1.790339.613862 2.67654.279075.8862-.334786 1.562205-1.068482 1.82346-1.979075 1.52-5.3 3-15.52 3-26.77 0-10-.34-22.71-1.24-34.07-1.85-23.23 4.94-42.4 4.94-64.83zm-131.58-9.26c-5.62 2.44 1 13.66-6.5 14.56-11.43 1.38-8.43-17.07-6.57-23.89 2.41-8.95 5.14-14.68 9.07-14.68 3.65 0 7.42 3.39 15.83 12.53 6.5 7.06 8.83 14 4.72 17.22-6.64 5.13-9.94-8.62-16.55-5.74zm23.32 54.36c-.6456814 3.2658786-3.6131154 5.5465234-6.9351657 5.3300763s-5.9684635-2.8628603-6.1849106-6.1849106 2.0641977-6.2894843 5.3300763-6.9351657c2.169582-.4289378 4.4101925.2521651 5.9740137 1.8159863s2.2449241 3.8044317 1.8159863 5.9740137zm31 88c-9.2051196.050726-17.4012801-5.817642-20.3190604-14.548241s.1031045-18.347721 7.4890604-23.841759v-76.82c0-7.0858133 5.7441867-12.83 12.83-12.83s12.83 5.7441867 12.83 12.83v76.79c7.3859559 5.494038 10.406841 15.11116 7.4890604 23.841759-2.9177803 8.730599-11.1139408 14.598967-20.3190604 14.548241zm36.21-82.76c-3.261468-.6513157-5.53568-3.6182282-5.317319-6.9369182.21836-3.31869 2.861711-5.962041 6.180401-6.1804012 3.31869-.2183603 6.285602 2.0558516 6.936918 5.3173194.418366 2.1670811-.269089 4.4002675-1.833748 5.9569025-1.564659 1.5566351-3.801351 2.2325993-5.966252 1.8030975zm24.62-45c-7.46-.91-.88-12.13-6.5-14.56-6.58-2.92-9.91 10.83-16.58 5.7-4.11-3.18-1.78-10.17 4.72-17.22 8.42-9.13 12.18-12.53 15.83-12.53 3.91 0 6.66 5.73 9.07 14.68 1.86 6.82 4.84 25.27-6.54 23.89z"/></g></svg>
